<svg width="29.396973" height="29.396973" viewBox="0 0 29.397 29.397" fill="none" xmlns="http://www.w3.org/2000/svg" xmlns:xlink="http://www.w3.org/1999/xlink">
	<desc>
			Created with Pixso.
	</desc>
	<defs/>
	<path id="Vector" d="M28.32 12.55L25.4 12.07C25.19 11.2 24.89 10.37 24.48 9.6L26.35 7.29C26.74 6.8 26.73 6.1 26.31 5.63L25.15 4.32C24.73 3.85 24.03 3.75 23.5 4.09L21.01 5.66C19.92 4.89 18.68 4.32 17.34 4L16.85 1.07C16.75 0.45 16.21 0 15.58 0L13.84 0C13.21 0 12.67 0.45 12.57 1.07L12.08 4C10.98 4.27 9.94 4.7 8.99 5.28L6.62 3.59C6.11 3.23 5.41 3.28 4.97 3.73L3.73 4.96C3.29 5.41 3.23 6.11 3.6 6.62L5.29 8.99C4.72 9.93 4.29 10.96 4.02 12.06L1.07 12.55C0.45 12.66 0 13.19 0 13.82L0 15.57C0 16.2 0.45 16.73 1.07 16.83L4.02 17.33C4.24 18.23 4.56 19.09 4.99 19.89L3.13 22.19C2.74 22.68 2.76 23.38 3.17 23.85L4.33 25.16C4.75 25.63 5.45 25.73 5.98 25.39L8.5 23.8C9.57 24.54 10.78 25.07 12.08 25.39L12.57 28.32C12.67 28.94 13.21 29.39 13.83 29.39L15.58 29.39C16.21 29.39 16.75 28.94 16.85 28.32L17.34 25.39C18.43 25.12 19.46 24.69 20.39 24.13L22.86 25.89C23.37 26.25 24.07 26.2 24.52 25.75L25.75 24.52C26.19 24.07 26.25 23.37 25.88 22.86L24.13 20.4C24.7 19.46 25.13 18.42 25.4 17.32L28.32 16.83C28.94 16.73 29.39 16.2 29.39 15.57L29.39 13.82C29.39 13.19 28.94 12.66 28.32 12.55ZM14.74 20.21C11.7 20.21 9.23 17.74 9.23 14.7C9.23 11.65 11.7 9.18 14.74 9.18C17.78 9.18 20.25 11.65 20.25 14.7C20.25 17.74 17.79 20.21 14.74 20.21Z" fill="#FF6B00" fill-opacity="1.000000" fill-rule="nonzero"/>
</svg>
