<svg width="28.770020" height="37.215088" viewBox="0 0 28.77 37.2151" fill="none" xmlns="http://www.w3.org/2000/svg" xmlns:xlink="http://www.w3.org/1999/xlink">
	<desc>
			Created with Pixso.
	</desc>
	<defs/>
	<path id="Vector" d="M7.63 27.19C6.25 27.19 4.93 26.71 3.91 25.87L0.31 33.55L6.01 31.51L8.11 37.21L11.77 29.41C11.17 29.11 10.69 28.75 10.21 28.27C9.49 27.55 8.59 27.19 7.63 27.19Z" fill="#FF6B00" fill-opacity="1.000000" fill-rule="nonzero"/>
	<path id="Vector" d="M24.25 26.35C23.35 26.89 22.33 27.19 21.19 27.19C20.23 27.19 19.33 27.55 18.67 28.27C18.01 28.93 17.23 29.41 16.33 29.71L19.81 37.21L21.91 31.51L27.61 33.61L24.25 26.35Z" fill="#FF6B00" fill-opacity="1.000000" fill-rule="nonzero"/>
	<path id="Vector" d="M14.41 4.81C9.13 4.81 4.81 9.13 4.81 14.41C4.81 19.69 9.13 24.01 14.41 24.01C19.69 24.01 24.01 19.69 24.01 14.41C24.01 9.13 19.69 4.81 14.41 4.81ZM18.61 20.23L14.41 18.01L10.21 20.23L10.99 15.55L7.57 12.25L12.25 11.59L14.35 7.33L16.45 11.59L21.13 12.25L17.71 15.55L18.61 20.23Z" fill="#FF6B00" fill-opacity="1.000000" fill-rule="nonzero"/>
	<path id="Vector" d="M21.19 25.99C23.83 25.99 25.99 23.83 25.99 21.19C25.99 19.93 26.47 18.67 27.37 17.77C29.23 15.91 29.23 12.85 27.37 10.99C26.47 10.09 25.99 8.89 25.99 7.57C25.99 4.93 23.83 2.77 21.19 2.77C19.93 2.77 18.67 2.29 17.77 1.39C15.91 -0.47 12.85 -0.47 10.99 1.39C10.09 2.29 8.89 2.77 7.57 2.77C4.93 2.77 2.77 4.93 2.77 7.57C2.77 8.83 2.29 10.09 1.39 10.99C-0.47 12.91 -0.47 15.91 1.39 17.83C2.29 18.73 2.77 19.93 2.77 21.25C2.77 23.89 4.93 26.05 7.57 26.05C8.83 26.05 10.09 26.53 10.99 27.43C12.85 29.29 15.91 29.29 17.77 27.43C18.73 26.53 19.93 25.99 21.19 25.99ZM14.41 25.21C8.47 25.21 3.61 20.35 3.61 14.41C3.61 8.47 8.47 3.61 14.41 3.61C20.35 3.61 25.21 8.47 25.21 14.41C25.21 20.35 20.35 25.21 14.41 25.21Z" fill="#FF6B00" fill-opacity="1.000000" fill-rule="nonzero"/>
</svg>
