<svg width="34" height="34" viewBox="0 0 34 34" fill="none" xmlns="http://www.w3.org/2000/svg">
<g id="6e2df1214655fabfd6c4272c7885bf8e 1">
<g id="Group">
<g id="Group_2">
<path id="Vector" d="M15.6491 5.07281C16.1897 5.24213 16.5674 5.55493 16.8282 6.05643L16.9846 6.34951L17.004 9.84743L17.0237 13.3518H9.7215H2.41966L2.43904 9.84743C2.45842 6.38215 2.45842 6.34951 2.6019 6.08227C2.82324 5.66543 3.0643 5.41145 3.42912 5.22241L3.7613 5.04663L9.62392 5.03371C12.8481 5.02725 15.5579 5.04697 15.6491 5.07281ZM13.3952 7.20291C13.2585 7.26819 13.1021 7.42425 13.0042 7.59391C12.8413 7.86761 12.8413 7.88053 12.8611 9.24189C12.8804 10.4992 12.8937 10.623 13.0175 10.7858C13.2714 11.1309 13.4799 11.2353 13.8902 11.2353C14.3006 11.2353 14.509 11.1309 14.763 10.7858C14.8868 10.623 14.8997 10.4992 14.9194 9.24189C14.9388 7.88053 14.9388 7.86761 14.7763 7.59391C14.6852 7.43751 14.5158 7.26819 14.3985 7.20971C14.1184 7.07269 13.6754 7.07269 13.3952 7.20291ZM9.12208 7.26173C9.0245 7.33347 8.88748 7.50279 8.80928 7.63301C8.67906 7.86761 8.6726 7.95227 8.69198 9.24189C8.71136 10.4992 8.72462 10.623 8.84838 10.7858C9.10236 11.1309 9.31078 11.2353 9.72116 11.2353C10.1315 11.2353 10.34 11.1309 10.5939 10.7858C10.7177 10.623 10.7306 10.4992 10.7503 9.24189C10.7697 7.88053 10.7697 7.86761 10.6072 7.59391C10.5161 7.43751 10.3468 7.26173 10.2295 7.20291C9.94284 7.05977 9.35668 7.09207 9.12208 7.26173ZM4.95334 7.26173C4.85576 7.33347 4.71874 7.50279 4.64054 7.63301C4.51032 7.86761 4.50386 7.95227 4.52324 9.24189C4.54262 10.4992 4.55588 10.623 4.67964 10.7858C4.93362 11.1309 5.14204 11.2353 5.55242 11.2353C5.9628 11.2353 6.17122 11.1309 6.4252 10.7858C6.54896 10.623 6.56188 10.4992 6.5816 9.24189C6.60098 7.88053 6.60098 7.86761 6.43812 7.59391C6.347 7.43751 6.17768 7.26173 6.06038 7.20291C5.7741 7.05977 5.18794 7.09207 4.95334 7.26173Z" fill="#FF6B00"/>
<path id="Vector_2" d="M26.9963 6.18012C27.7453 6.42118 28.6507 7.05936 29.6214 8.03652C31.4713 9.89293 32.9435 12.3358 33.5035 14.4918C33.6599 15.0715 33.6599 15.1106 33.6599 18.5629V22.0479L33.4906 22.4127C33.2625 22.9013 32.8653 23.2855 32.3377 23.533C31.9728 23.7024 31.8164 23.735 31.2497 23.7612L30.5918 23.7874L30.5136 24.3932C30.2399 26.5427 28.7418 28.2431 26.5923 28.8292C26.0062 28.9856 24.7033 28.9856 24.1171 28.8292C23.1464 28.5623 22.4562 28.1713 21.7528 27.4937C20.8276 26.608 20.3068 25.52 20.1765 24.2107L20.131 23.7741H16.5028H12.8747L12.8029 24.3473C12.6465 25.5914 12.1777 26.5359 11.2916 27.4284C10.6599 28.0601 10.0605 28.4382 9.31795 28.6857C7.37043 29.3372 5.33145 28.8421 3.91807 27.3764C3.05175 26.4774 2.58289 25.4744 2.45879 24.2107L2.41323 23.7741H1.97667C1.74207 23.7741 1.42961 23.7415 1.28613 23.7024C0.947487 23.6048 0.510925 23.1682 0.413345 22.8296C0.315765 22.4648 0.315765 15.7035 0.413345 15.3387C0.510925 15.0001 0.947487 14.5635 1.28613 14.4659C1.46836 14.4139 4.09351 14.3942 10.3209 14.3942H19.095L19.1147 11.0853L19.1341 7.78289L19.3034 7.41806C19.5316 6.92949 19.9287 6.54528 20.4564 6.29777L20.8929 6.08935L23.7591 6.07643C26.3904 6.06282 26.6576 6.06962 26.9963 6.18012ZM21.6678 8.31022C21.5702 8.38197 21.4267 8.5251 21.355 8.62302C21.2247 8.79235 21.2183 8.88346 21.2183 10.4859C21.2183 12.0883 21.2247 12.1794 21.355 12.3487C21.6025 12.6809 21.798 12.772 22.5276 12.9023C23.4786 13.078 24.0454 13.2474 24.6707 13.5602C25.3479 13.8923 25.7651 14.2116 26.2731 14.7848C26.5012 15.0453 26.7681 15.2928 26.8657 15.3452C27.1261 15.4818 29.7122 15.4754 29.973 15.3387C30.2399 15.202 30.4874 14.8828 30.5397 14.6091C30.5982 14.3095 30.4289 13.3585 30.2011 12.668C29.6279 10.9224 28.26 8.98105 27.1071 8.27759C26.8922 8.14091 26.8269 8.14091 24.3647 8.15382C21.935 8.17354 21.8374 8.18 21.6678 8.31022ZM24.5925 20.7386C24.4034 20.7906 24.1103 20.895 23.941 20.9796C23.5177 21.1816 22.7554 21.9568 22.5406 22.4063C21.9738 23.6112 22.1887 24.9597 23.1203 25.9304C24.3579 27.2268 26.39 27.2135 27.6212 25.8977C28.5137 24.9403 28.7286 23.683 28.2073 22.4716C27.9598 21.9048 27.2237 21.1687 26.6569 20.9212C26.0126 20.6475 25.2116 20.5757 24.5925 20.7386ZM6.87505 20.7386C6.68635 20.7906 6.39293 20.895 6.22361 20.9796C5.82615 21.1687 5.04449 21.9568 4.84253 22.3607C4.24991 23.5789 4.46479 24.9468 5.40285 25.9304C6.34737 26.9205 7.79985 27.1744 9.05071 26.5689C9.45463 26.3669 10.2428 25.5853 10.4318 25.1878C10.8486 24.315 10.868 23.3641 10.4903 22.4716C10.2427 21.9048 9.50665 21.1687 8.93987 20.9212C8.29489 20.6475 7.49385 20.5757 6.87505 20.7386Z" fill="#FF6B00"/>
</g>
</g>
</g>
</svg>
