<svg width="23.687500" height="28.916016" viewBox="0 0 23.6875 28.916" fill="none" xmlns="http://www.w3.org/2000/svg" xmlns:xlink="http://www.w3.org/1999/xlink">
	<desc>
			Created with Pixso.
	</desc>
	<defs/>
	<path id="Vector" d="M5.23 9.2L18.42 9.19C19.14 9.19 19.73 8.6 19.73 7.88C19.73 7.15 19.14 6.57 18.42 6.57L5.23 6.58C4.5 6.58 3.92 7.16 3.92 7.89C3.92 8.62 4.5 9.2 5.23 9.2ZM23.65 18.08L23.64 2.38C23.52 1.06 22.41 0.02 21.07 0L2.39 0.01C1.05 0.13 0.01 1.26 0.01 2.62L0.01 4.02L0 4.02L0 24.87L0.01 24.87L0.01 26.27C0.01 27.72 1.18 28.89 2.63 28.89L3.95 28.89L3.95 28.9L7.82 28.9C8.55 28.9 9.14 28.31 9.14 27.58C9.14 26.86 8.55 26.27 7.82 26.27L3.65 26.28L5.26 26.24C3.2 26.24 2.66 25.86 2.63 23.77L2.65 26.28L2.63 26.28L2.62 2.64L2.65 2.64L2.63 5.13C2.66 3.04 3.2 2.66 5.26 2.66L4.41 2.64L19.6 2.63L18.39 2.66C20.33 2.66 20.93 3 21.01 4.79L21.02 17.07L15.85 17.07L15.85 17.07L14.46 17.07C13 17.07 11.83 18.25 11.83 19.7L11.83 21.01L11.82 21.01L11.83 27.32C11.74 27.74 11.86 28.19 12.19 28.52C12.32 28.65 12.48 28.75 12.65 28.81C12.8 28.88 12.97 28.91 13.14 28.91C13.6 28.91 14.01 28.67 14.24 28.32L23 19.54C23.09 19.49 23.17 19.42 23.25 19.35C23.52 19.11 23.68 18.76 23.68 18.37C23.68 18.27 23.67 18.18 23.65 18.08ZM21.01 2.62L21.01 2.62L21.01 3.51L21.01 2.62ZM14.45 24.39L14.45 22.11C14.48 20.23 14.94 19.73 16.95 19.7L14.46 19.72L14.45 22.05L14.44 19.7L19.14 19.69L14.45 24.39ZM5.23 14.46L18.42 14.45C19.14 14.45 19.73 13.86 19.73 13.13C19.73 12.41 19.14 11.82 18.42 11.82L5.23 11.83C4.5 11.83 3.92 12.42 3.92 13.14C3.92 13.87 4.5 14.46 5.23 14.46Z" fill="#FF6B00" fill-opacity="1.000000" fill-rule="nonzero"/>
</svg>
