<svg width="39" height="39" viewBox="0 0 39 39" fill="none" xmlns="http://www.w3.org/2000/svg">
<g id="4124869-badge-insignia-premium-badge-quality-star-badge_114113 1">
<g id="Group">
<path id="Vector" d="M11.82 28.08C10.44 28.08 9.12 27.6 8.1 26.76L4.5 34.44L10.2 32.4L12.3 38.1L15.96 30.3C15.36 30 14.88 29.64 14.4 29.16C13.68 28.44 12.78 28.08 11.82 28.08Z" fill="#FF6B00"/>
<path id="Vector_2" d="M28.44 27.24C27.54 27.78 26.52 28.08 25.38 28.08C24.42 28.08 23.52 28.44 22.86 29.16C22.2 29.82 21.42 30.3 20.52 30.6L24 38.1L26.1 32.4L31.8 34.5L28.44 27.24Z" fill="#FF6B00"/>
<path id="Vector_3" d="M18.6 5.69995C13.32 5.69995 9 10.02 9 15.3C9 20.58 13.32 24.9 18.6 24.9C23.88 24.9 28.2 20.58 28.2 15.3C28.2 10.02 23.88 5.69995 18.6 5.69995ZM22.8 21.12L18.6 18.9L14.4 21.12L15.18 16.44L11.76 13.14L16.44 12.48L18.54 8.21995L20.64 12.48L25.32 13.14L21.9 16.44L22.8 21.12Z" fill="#FF6B00"/>
<path id="Vector_4" d="M25.3801 26.88C28.0201 26.88 30.1801 24.72 30.1801 22.08C30.1801 20.82 30.6601 19.56 31.5601 18.66C33.4201 16.8 33.4201 13.74 31.5601 11.88C30.6601 10.98 30.1801 9.78001 30.1801 8.46001C30.1801 5.82001 28.0201 3.66001 25.3801 3.66001C24.1201 3.66001 22.8601 3.18001 21.9601 2.28001C20.1001 0.42001 17.0401 0.42001 15.1801 2.28001C14.2801 3.18001 13.0801 3.66001 11.7601 3.66001C9.12006 3.66001 6.96006 5.82001 6.96006 8.46001C6.96006 9.72001 6.48006 10.98 5.58006 11.88C3.72006 13.8 3.72006 16.8 5.58006 18.72C6.48006 19.62 6.96006 20.82 6.96006 22.14C6.96006 24.78 9.12006 26.94 11.7601 26.94C13.0201 26.94 14.2801 27.42 15.1801 28.32C17.0401 30.18 20.1001 30.18 21.9601 28.32C22.9201 27.42 24.1201 26.88 25.3801 26.88ZM18.6001 26.1C12.6601 26.1 7.80006 21.24 7.80006 15.3C7.80006 9.36001 12.6601 4.50001 18.6001 4.50001C24.5401 4.50001 29.4001 9.36001 29.4001 15.3C29.4001 21.24 24.5401 26.1 18.6001 26.1Z" fill="#FF6B00"/>
</g>
</g>
</svg>
