<svg width="30" height="30" viewBox="0 0 30 30" fill="none" xmlns="http://www.w3.org/2000/svg">
<g id="9d3282b5946f9a234ebdf10338d02c89 1" clip-path="url(#clip0_59_22)">
<g id="Group">
<path id="Vector" d="M28.623 12.858L25.71 12.372C25.497 11.508 25.191 10.68 24.789 9.90905L26.652 7.59605C27.048 7.10705 27.03 6.40505 26.613 5.93405L25.455 4.62905C25.035 4.15805 24.339 4.05905 23.808 4.39505L21.318 5.96105C20.223 5.19605 18.981 4.62905 17.643 4.30205L17.157 1.37405C17.055 0.756049 16.518 0.300049 15.888 0.300049H14.142C13.512 0.300049 12.975 0.756049 12.876 1.37405L12.387 4.30205C11.28 4.57205 10.242 5.01005 9.29705 5.58605L6.92705 3.89705C6.41705 3.53105 5.71505 3.58805 5.27105 4.03505L4.03805 5.26805C3.59405 5.71205 3.53705 6.41405 3.90305 6.92405L5.59805 9.29705C5.02805 10.236 4.59305 11.268 4.32305 12.366L1.37705 12.858C0.756049 12.963 0.300049 13.497 0.300049 14.127V15.87C0.300049 16.5 0.756049 17.037 1.37405 17.139L4.32005 17.6311C4.54205 18.534 4.86605 19.3951 5.29505 20.1961L3.43805 22.494C3.04205 22.983 3.06005 23.6851 3.47705 24.156L4.63505 25.4611C5.05505 25.9321 5.75105 26.031 6.28205 25.695L8.80805 24.108C9.87605 24.84 11.085 25.3771 12.384 25.695L12.873 28.623C12.972 29.244 13.512 29.6971 14.139 29.6971H15.885C16.515 29.6971 17.052 29.241 17.154 28.623L17.643 25.695C18.735 25.428 19.761 24.9991 20.7 24.4321L23.166 26.193C23.676 26.559 24.378 26.5021 24.822 26.055L26.055 24.8221C26.499 24.378 26.559 23.6761 26.19 23.166L24.432 20.703C25.005 19.761 25.44 18.726 25.71 17.625L28.623 17.139C29.244 17.037 29.697 16.5 29.697 15.87V14.127C29.7 13.497 29.244 12.963 28.623 12.858ZM15.045 20.511C12 20.511 9.53405 18.042 9.53405 15C9.53405 11.955 12.003 9.48905 15.045 9.48905C18.087 9.48905 20.556 11.958 20.556 15C20.559 18.042 18.09 20.511 15.045 20.511Z" fill="#FF6B00"/>
</g>
</g>
<defs>
<clipPath id="clip0_59_22">
<rect width="30" height="30" fill="white"/>
</clipPath>
</defs>
</svg>
