<svg width="33.319824" height="23.935059" viewBox="0 0 33.3198 23.9351" fill="none" xmlns="http://www.w3.org/2000/svg" xmlns:xlink="http://www.w3.org/1999/xlink">
	<desc>
			Created with Pixso.
	</desc>
	<defs/>
	<path id="Vector" d="M15.3 0.04C15.84 0.2 16.22 0.52 16.48 1.02L16.64 1.31L16.66 4.81L16.68 8.31L9.38 8.31L2.07 8.31L2.09 4.81C2.11 1.34 2.11 1.31 2.26 1.04C2.48 0.63 2.72 0.37 3.08 0.18L3.42 0.01L9.28 0C12.5 -0.01 15.21 0.01 15.3 0.04ZM13.05 2.17C12.91 2.23 12.76 2.39 12.66 2.56C12.5 2.83 12.5 2.84 12.52 4.2C12.54 5.46 12.55 5.59 12.67 5.75C12.93 6.09 13.13 6.2 13.55 6.2C13.96 6.2 14.16 6.09 14.42 5.75C14.54 5.59 14.55 5.46 14.57 4.2C14.59 2.84 14.59 2.83 14.43 2.56C14.34 2.4 14.17 2.23 14.05 2.17C13.77 2.04 13.33 2.04 13.05 2.17ZM8.78 2.22C8.68 2.3 8.54 2.47 8.46 2.6C8.33 2.83 8.33 2.91 8.35 4.2C8.37 5.46 8.38 5.59 8.5 5.75C8.76 6.09 8.97 6.2 9.38 6.2C9.79 6.2 9.99 6.09 10.25 5.75C10.37 5.59 10.39 5.46 10.41 4.2C10.42 2.84 10.42 2.83 10.26 2.56C10.17 2.4 10 2.22 9.88 2.17C9.6 2.02 9.01 2.05 8.78 2.22ZM4.61 2.22C4.51 2.3 4.37 2.47 4.3 2.6C4.17 2.83 4.16 2.91 4.18 4.2C4.2 5.46 4.21 5.59 4.33 5.75C4.59 6.09 4.8 6.2 5.21 6.2C5.62 6.2 5.83 6.09 6.08 5.75C6.2 5.59 6.22 5.46 6.24 4.2C6.26 2.84 6.26 2.83 6.09 2.56C6 2.4 5.83 2.22 5.72 2.17C5.43 2.02 4.84 2.05 4.61 2.22Z" fill="#FF6B00" fill-opacity="1.000000" fill-rule="nonzero"/>
	<path id="Vector" d="M26.65 1.14C27.4 1.38 28.31 2.02 29.28 3C31.13 4.86 32.6 7.3 33.16 9.45C33.31 10.03 33.31 10.07 33.31 13.53L33.31 17.01L33.15 17.38C32.92 17.86 32.52 18.25 31.99 18.5C31.63 18.66 31.47 18.7 30.9 18.72L30.25 18.75L30.17 19.36C29.89 21.51 28.4 23.21 26.25 23.79C25.66 23.95 24.36 23.95 23.77 23.79C22.8 23.52 22.11 23.13 21.41 22.46C20.48 21.57 19.96 20.48 19.83 19.17L19.79 18.74L16.16 18.74L12.53 18.74L12.46 19.31C12.3 20.55 11.83 21.5 10.95 22.39C10.31 23.02 9.72 23.4 8.97 23.65C7.03 24.3 4.99 23.8 3.57 22.34C2.71 21.44 2.24 20.44 2.11 19.17L2.07 18.74L1.63 18.74C1.4 18.74 1.08 18.7 0.94 18.66C0.6 18.57 0.17 18.13 0.07 17.79C-0.03 17.43 -0.03 10.67 0.07 10.3C0.17 9.96 0.6 9.53 0.94 9.43C1.12 9.38 3.75 9.36 9.98 9.36L18.75 9.36L18.77 6.05L18.79 2.75L18.96 2.38C19.19 1.89 19.58 1.51 20.11 1.26L20.55 1.05L23.41 1.04C26.05 1.03 26.31 1.03 26.65 1.14ZM21.32 3.27C21.23 3.34 21.08 3.49 21.01 3.59C20.88 3.75 20.87 3.85 20.87 5.45C20.87 7.05 20.88 7.14 21.01 7.31C21.26 7.64 21.45 7.73 22.18 7.86C23.13 8.04 23.7 8.21 24.33 8.52C25 8.85 25.42 9.17 25.93 9.75C26.16 10.01 26.42 10.26 26.52 10.31C26.78 10.44 29.37 10.44 29.63 10.3C29.89 10.16 30.14 9.85 30.19 9.57C30.25 9.27 30.08 8.32 29.86 7.63C29.28 5.88 27.91 3.94 26.76 3.24C26.55 3.1 26.48 3.1 24.02 3.12C21.59 3.14 21.49 3.14 21.32 3.27ZM24.25 15.7C24.06 15.75 23.77 15.86 23.6 15.94C23.17 16.14 22.41 16.92 22.2 17.37C21.63 18.57 21.84 19.92 22.78 20.89C24.01 22.19 26.05 22.18 27.28 20.86C28.17 19.9 28.38 18.65 27.86 17.43C27.61 16.87 26.88 16.13 26.31 15.88C25.67 15.61 24.87 15.54 24.25 15.7ZM6.53 15.7C6.34 15.75 6.05 15.86 5.88 15.94C5.48 16.13 4.7 16.92 4.5 17.32C3.9 18.54 4.12 19.91 5.06 20.89C6 21.88 7.45 22.14 8.71 21.53C9.11 21.33 9.9 20.55 10.09 20.15C10.5 19.28 10.52 18.33 10.15 17.43C9.9 16.87 9.16 16.13 8.59 15.88C7.95 15.61 7.15 15.54 6.53 15.7Z" fill="#FF6B00" fill-opacity="1.000000" fill-rule="nonzero"/>
</svg>
