<svg width="59" height="59" viewBox="0 0 59 59" fill="none" xmlns="http://www.w3.org/2000/svg">
<g id="ec2fd5cc6ec44e485f9eaad4dd0257be 1">
<g id="Group">
<path id="Vector" d="M18.9741 9.20883L32.1604 9.19703C32.8862 9.19703 33.4734 8.60986 33.4734 7.88401C33.4734 7.15816 32.8862 6.57099 32.1604 6.57099L18.9741 6.58279C18.2483 6.58279 17.6611 7.16996 17.6611 7.89581C17.6611 8.62166 18.2483 9.20883 18.9741 9.20883ZM37.3947 18.0872L37.3829 2.38409C37.2619 1.06222 36.1584 0.0236048 34.81 0L16.1327 0.0118024C14.7961 0.138678 13.7515 1.25991 13.7515 2.62899V4.02462H13.7397L13.7486 24.8765H13.7515V26.2722C13.7515 27.7239 14.9288 28.8982 16.3776 28.8982H17.6906V28.9071L21.5677 28.9012C22.2935 28.9012 22.8807 28.314 22.8807 27.5881C22.8807 26.8623 22.2935 26.2751 21.5677 26.2751L17.3985 26.284L19.0036 26.2456C16.9471 26.2456 16.4041 25.8679 16.3776 23.7789L16.3953 26.2869H16.3776L16.3658 2.64374H16.3953L16.3776 5.1311C16.4041 3.04207 16.9471 2.66439 19.0036 2.66439L18.1538 2.64374L33.3406 2.63489L32.1397 2.66439C34.0782 2.66439 34.6743 3.00076 34.7569 4.79178L34.7657 17.0722L29.5963 17.0751V17.0781H28.2006C26.749 17.0781 25.5746 18.2554 25.5746 19.7041V21.0171H25.5658L25.5746 27.3255C25.489 27.7445 25.6071 28.196 25.9316 28.5205C26.0674 28.6563 26.2237 28.7566 26.3919 28.8185C26.5454 28.8805 26.7106 28.9159 26.8876 28.9159C27.3479 28.9159 27.7522 28.6799 27.9853 28.3228L36.7426 19.5448C36.8341 19.4917 36.9197 19.4268 36.9964 19.353C37.2619 19.114 37.4272 18.7658 37.4272 18.3793C37.4272 18.279 37.4154 18.1816 37.3947 18.0872ZM34.751 2.62899H34.7569V3.51417L34.751 2.62899ZM28.1947 24.3926L28.1918 22.1118C28.2213 20.2382 28.6816 19.7307 30.6939 19.7041L28.2065 19.7218L28.1918 22.0587L28.1888 19.7041L32.8803 19.6982L28.1947 24.3926ZM18.9741 14.4639L32.1604 14.4521C32.8862 14.4521 33.4734 13.8649 33.4734 13.139C33.4734 12.4132 32.8862 11.826 32.1604 11.826L18.9741 11.8349C18.2483 11.8349 17.6611 12.422 17.6611 13.1479C17.6611 13.8737 18.2483 14.4639 18.9741 14.4639Z" fill="#FF6B00"/>
</g>
</g>
</svg>
