<svg width="13" height="13" viewBox="0 0 13 13" fill="none" xmlns="http://www.w3.org/2000/svg">
<g id="32b52a90fe1f45f6575d18613274d8fb 1">
<g id="Group">
<g id="Group_2">
<g id="Group_3">
<path id="Vector" d="M10.7627 7.02908C10.7315 7.01348 10.7016 7.00568 10.6704 7.00568C10.6041 7.00568 10.5456 7.03168 10.4949 7.08238L10.0048 7.57248C9.9593 7.61798 9.9359 7.67518 9.9359 7.74148V9.68758C9.9359 10.0243 9.8163 10.3129 9.5758 10.5534C9.3353 10.7939 9.0467 10.9135 8.71 10.9135H2.3361C1.9994 10.9135 1.7108 10.7939 1.4703 10.5534C1.2298 10.3129 1.1102 10.0243 1.1102 9.68758V3.31238C1.1102 2.97568 1.2298 2.68708 1.4703 2.44658C1.7108 2.20608 1.9994 2.08648 2.3361 2.08648H8.71C8.8218 2.08648 8.9375 2.10208 9.0545 2.13198C9.0857 2.14238 9.1078 2.14758 9.1234 2.14758C9.1897 2.14758 9.24821 2.12158 9.3002 2.07088L9.6759 1.69518C9.737 1.63408 9.7604 1.55998 9.7448 1.47288C9.7292 1.39098 9.6837 1.33248 9.607 1.29608C9.3314 1.16868 9.0324 1.10498 8.7113 1.10498H2.3361C1.7277 1.10498 1.209 1.32078 0.777405 1.75238C0.345805 2.18528 0.130005 2.70528 0.130005 3.31368V9.68758C0.130005 10.2947 0.345805 10.8147 0.777405 11.2463C1.209 11.6779 1.729 11.8937 2.3361 11.8937H8.71C9.3171 11.8937 9.8371 11.6779 10.2687 11.2463C10.7003 10.8147 10.9161 10.2947 10.9161 9.68758V7.25008C10.9161 7.14348 10.8654 7.06938 10.7627 7.02908Z" fill="#FF6B00"/>
<path id="Vector_2" d="M12.6867 2.63117L11.843 1.78877C11.7208 1.66657 11.5752 1.60547 11.4062 1.60547C11.2372 1.60547 11.0916 1.66657 10.9694 1.78877L6.01379 6.74437L3.99879 4.72937C3.87659 4.60717 3.73099 4.54607 3.56199 4.54607C3.39299 4.54607 3.24739 4.60717 3.12519 4.72937L2.28279 5.57177C2.16059 5.69397 2.09949 5.83957 2.09949 6.00857C2.09949 6.17757 2.16059 6.32317 2.28279 6.44537L5.57699 9.74087C5.69919 9.86307 5.84479 9.92417 6.01379 9.92417C6.18279 9.92417 6.32839 9.86307 6.45059 9.74087L12.6867 3.50477C12.8089 3.38257 12.87 3.23697 12.87 3.06797C12.87 2.89897 12.8089 2.75337 12.6867 2.63117Z" fill="#FF6B00"/>
</g>
</g>
</g>
</g>
</svg>
