<svg width="10" height="16" viewBox="0 0 10 16" fill="none" xmlns="http://www.w3.org/2000/svg">
<path d="M7.50234 0.504066C7.96154 0.0448665 8.70714 0.0448665 9.16634 0.504066C9.62554 0.963266 9.62554 1.70887 9.16634 2.16807L4.05434 7.28167C3.89434 7.48807 3.80474 7.74087 3.80474 8.00487C3.80474 8.26887 3.89434 8.52327 4.05434 8.72807L9.15674 13.8305C9.61594 14.2897 9.61594 15.0353 9.15674 15.4945C8.69754 15.9537 7.95194 15.9537 7.49274 15.4945L0.835141 8.83687C0.614341 8.61607 0.491142 8.31687 0.491142 8.00487C0.491142 7.69287 0.614341 7.39367 0.835142 7.17287L7.50234 0.504066Z" fill="black"/>
</svg>
