<svg width="21" height="21" viewBox="0 0 21 21" fill="none" xmlns="http://www.w3.org/2000/svg">
<g id="06c84dc55459925e40e702e169b56226 1" clip-path="url(#clip0_60_2)">
<g id="Group">
<path id="Vector" d="M19.5048 11.7853H18.2175C17.5077 11.7853 16.9323 11.2099 16.9323 10.498C16.9323 9.78821 17.5098 9.21071 18.2175 9.21071H19.5048C20.2167 9.21071 20.79 9.78821 20.79 10.498C20.79 11.2099 20.2146 11.7853 19.5048 11.7853ZM16.8672 5.95151C16.3653 6.45341 15.5505 6.45341 15.0486 5.95151C14.5467 5.44961 14.5467 4.63481 15.0486 4.13291L15.9579 3.22361C16.3338 2.84771 16.8861 2.75321 17.3502 2.94221C17.5056 3.00521 17.6505 3.09971 17.7765 3.22361C17.9025 3.34961 17.997 3.49451 18.06 3.64991C18.249 4.11401 18.1545 4.66631 17.7765 5.04431L16.8672 5.95151ZM10.5 15.6451C7.65866 15.6451 5.35496 13.3414 5.35496 10.5001C5.35496 7.65881 7.65866 5.35511 10.5 5.35511C13.3413 5.35511 15.645 7.65881 15.645 10.5001C15.645 13.3414 13.3413 15.6451 10.5 15.6451ZM10.5 7.92761C9.07826 7.92761 7.92746 9.07841 7.92746 10.5001C7.92746 11.9218 9.07826 13.0726 10.5 13.0726C11.9217 13.0726 13.0725 11.9218 13.0725 10.5001C13.0725 9.07841 11.9217 7.92761 10.5 7.92761ZM10.5 4.06781C9.79016 4.06781 9.21266 3.49241 9.21266 2.78051V1.49531C9.21266 0.783408 9.79016 0.208008 10.5 0.208008C11.2119 0.208008 11.7852 0.783408 11.7852 1.49531V2.78051C11.7852 3.49241 11.2119 4.06781 10.5 4.06781ZM4.13486 5.95151L3.22556 5.04221C2.72366 4.54031 2.72366 3.72551 3.22556 3.22361C3.72746 2.72171 4.54226 2.72171 5.04416 3.22361L5.95346 4.13291C6.45536 4.63481 6.45536 5.44961 5.95346 5.95151C5.44946 6.45551 4.63676 6.45551 4.13486 5.95151ZM4.06976 10.5001C4.06976 11.212 3.49436 11.7853 2.78246 11.7853H1.49726C0.787461 11.7853 0.209961 11.2099 0.209961 10.5001C0.209961 9.79031 0.787461 9.21281 1.49726 9.21281H2.78456C3.49436 9.21281 4.06976 9.79031 4.06976 10.5001ZM4.13486 15.0466C4.63676 14.5447 5.45156 14.5447 5.95346 15.0466C6.45536 15.5485 6.45536 16.3633 5.95346 16.8652L5.04416 17.7745C4.54226 18.2764 3.72746 18.2764 3.22556 17.7745C2.72366 17.2726 2.72366 16.4578 3.22556 15.9559L4.13486 15.0466ZM10.5 16.9303C11.2119 16.9303 11.7852 17.5057 11.7852 18.2155V19.5028C11.7852 20.2126 11.2098 20.7901 10.5 20.7901C9.79016 20.7901 9.21266 20.2126 9.21266 19.5028V18.2155C9.21476 17.5057 9.79016 16.9303 10.5 16.9303ZM16.8672 15.0466L17.7765 15.9559C18.2784 16.4578 18.2784 17.2726 17.7765 17.7745C17.2746 18.2764 16.4598 18.2764 15.9579 17.7745L15.0486 16.8652C14.5467 16.3633 14.5467 15.5485 15.0486 15.0466C15.5505 14.5447 16.3653 14.5447 16.8672 15.0466Z" fill="#FF9900"/>
</g>
</g>
<defs>
<clipPath id="clip0_60_2">
<rect width="21" height="21" fill="white"/>
</clipPath>
</defs>
</svg>
