<svg width="21" height="21" viewBox="0 0 21 21" fill="none" xmlns="http://www.w3.org/2000/svg">
<g id="783aa9f0fd6ecba7714550668e063212 1">
<g id="Group">
<g id="Group_2">
<path id="Vector" d="M9.98542 0.508902L9.53518 0.802902V1.75861V2.7097L8.87347 2.04799L8.21638 1.3909L7.64665 1.49191C7.33417 1.54714 7.0723 1.59754 7.06768 1.60216C7.06306 1.60678 7.01707 1.86403 6.96205 2.18113L6.86545 2.75086L8.1979 4.08331L9.53497 5.42038V7.1113V8.80243L9.31909 8.68294C9.19498 8.61868 8.54251 8.22808 7.85791 7.81921L6.61723 7.07476L6.15775 5.27359C5.9005 4.28113 5.67538 3.44953 5.65228 3.42643C5.61091 3.3943 4.64596 3.00833 4.59556 3.00833C4.57708 3.00833 3.91558 3.7849 3.86959 3.86302C3.85111 3.89515 3.93847 4.31326 4.06258 4.80025C4.23268 5.4481 4.27384 5.67322 4.22344 5.65495C4.19131 5.64109 3.82822 5.43445 3.41935 5.19085L2.67511 4.74986L2.50963 4.81873C2.41765 4.85548 2.1835 4.96111 1.98127 5.05771L1.61839 5.23222L1.65052 5.80657C1.669 6.12367 1.68727 6.38554 1.69189 6.39016C1.69651 6.39478 2.06401 6.61066 2.50522 6.86791C2.96932 7.14826 3.27718 7.3549 3.24043 7.36876C3.20368 7.378 2.79943 7.48825 2.34436 7.60312L1.51738 7.819L1.29688 8.36584L1.07638 8.91268L1.228 9.04141C1.31074 9.11491 1.51738 9.28501 1.68286 9.41815L1.98148 9.66616L3.76879 9.2113C4.75642 8.95867 5.58361 8.75182 5.62036 8.75182C5.69386 8.75182 8.57023 10.452 8.57023 10.4978C8.57023 10.5391 5.69386 12.2437 5.62036 12.2437C5.58823 12.2437 4.75663 12.0369 3.7732 11.7842L1.98589 11.325L1.68265 11.5776C1.51717 11.7109 1.31053 11.8808 1.22779 11.9543L1.07617 12.0831L1.29667 12.6299L1.51717 13.1814L2.38552 13.3972C2.86327 13.5213 3.25849 13.627 3.27235 13.6362C3.28159 13.6501 2.92774 13.8706 2.49115 14.1324L1.69189 14.6056L1.65976 14.9731C1.6459 15.1799 1.63225 15.4418 1.63225 15.5567V15.7681L2.1331 16.0025C2.40421 16.1358 2.63857 16.2415 2.65243 16.2415C2.66629 16.2415 3.02455 16.0346 3.4519 15.782C3.87925 15.5292 4.24213 15.3225 4.26061 15.3225C4.27447 15.3225 4.18711 15.7085 4.063 16.1818C3.93889 16.6596 3.83788 17.0594 3.83788 17.0779C3.83788 17.0964 4.00336 17.3076 4.21 17.5512C4.47649 17.8683 4.6006 17.9832 4.65562 17.9647C5.01409 17.8499 5.65732 17.5741 5.68483 17.5237C5.70331 17.487 5.91919 16.6737 6.16279 15.7133C6.40177 14.753 6.62227 13.9443 6.64516 13.9168C6.68191 13.8708 9.37915 12.2534 9.49843 12.2076C9.51691 12.1983 9.53518 12.952 9.53518 13.8846V15.5756L8.19811 16.9126L6.86566 18.2451L6.96226 18.8148C7.01749 19.1319 7.06327 19.3938 7.06789 19.3984C7.07251 19.403 7.33438 19.449 7.65148 19.504L8.22121 19.6004L8.8783 18.9433L9.53539 18.2862V19.2281V20.1699L9.99025 20.4824C10.2429 20.6525 10.4726 20.7903 10.5003 20.7903C10.5279 20.7903 10.7576 20.6525 11.0104 20.4824L11.4653 20.1699V19.2281V18.2862L12.1224 18.9433L12.7795 19.6004L13.3492 19.504C13.6663 19.4488 13.9282 19.403 13.9328 19.3984C13.9374 19.3938 13.9834 19.1319 14.0384 18.8148L14.1348 18.2451L12.8024 16.9126L11.4653 15.5756V13.8846C11.4653 12.9518 11.4838 12.1983 11.502 12.2076C11.5249 12.2122 12.182 12.6028 12.9632 13.0623L14.383 13.9077L14.8379 15.6951C15.0905 16.6783 15.3159 17.5147 15.3434 17.5468C15.3847 17.5974 15.6926 17.726 16.3404 17.9649C16.3911 17.9834 16.5152 17.873 16.7586 17.5882C16.9469 17.3677 17.1124 17.1609 17.1307 17.1333C17.1443 17.1058 17.0572 16.6831 16.9331 16.2005C16.7676 15.5434 16.7262 15.3229 16.7768 15.3414C16.8136 15.3553 17.1767 15.5619 17.5809 15.8055C17.9898 16.0445 18.339 16.2421 18.3621 16.2421C18.385 16.2421 18.6196 16.1319 18.8859 16.0031L19.3682 15.7597V15.5254C19.3682 15.3966 19.3546 15.1348 19.3407 14.9464L19.3086 14.6064L18.5091 14.1331C18.0725 13.8712 17.7187 13.6507 17.7279 13.6415C17.7372 13.6322 18.1368 13.522 18.6147 13.4025L19.4831 13.1774L19.7036 12.6305L19.9241 12.0837L19.7725 11.955C19.6897 11.8815 19.4829 11.7114 19.3176 11.5782L19.0144 11.3256L17.2178 11.7851C16.23 12.0377 15.403 12.2445 15.3753 12.2445C15.3018 12.2445 12.43 10.54 12.43 10.4986C12.43 10.4801 13.0871 10.0759 13.8912 9.59812L15.3478 8.73439L17.1857 9.19849L19.019 9.66721L19.3222 9.4192C19.4877 9.28144 19.6897 9.11596 19.7725 9.04246L19.9241 8.91373L19.7036 8.36689L19.4831 7.82005L18.6561 7.60417C18.2013 7.48468 17.797 7.37905 17.76 7.36519C17.7233 7.35595 18.0358 7.14469 18.4953 6.86896C18.9363 6.61171 19.304 6.39121 19.3086 6.39121C19.3132 6.38659 19.3315 6.12472 19.35 5.80762L19.3777 5.23789L18.8907 4.99429C18.6242 4.86556 18.3852 4.75531 18.3577 4.75531C18.3348 4.75531 17.9856 4.95292 17.5765 5.1919C17.1723 5.4355 16.8092 5.64214 16.777 5.656C16.7264 5.67427 16.7678 5.44915 16.9379 4.8013C17.062 4.31431 17.1494 3.8962 17.1309 3.86407C17.0757 3.77209 16.4232 3.00937 16.4003 3.00937C16.3453 3.00937 15.3896 3.39073 15.3482 3.42748C15.3253 3.45037 15.1 4.28218 14.8427 5.27464L14.3832 7.07581L13.1558 7.80997C12.4758 8.21422 11.8233 8.60482 11.6946 8.6737L11.4649 8.80243V7.11151V5.42059L12.8019 4.08352L14.1344 2.75107L14.038 2.18134C13.983 1.86424 13.937 1.60237 13.9278 1.59775C13.9231 1.58851 13.6613 1.54252 13.3488 1.49212L12.7791 1.39552L12.122 2.05261L11.4649 2.7097V1.75861V0.807526L11.0054 0.508902C10.7481 0.343422 10.5184 0.205664 10.4863 0.210283C10.4539 0.210283 10.2288 0.348042 9.98542 0.508902Z" fill="#6D90CD"/>
</g>
</g>
</g>
</svg>
