<svg width="21" height="21" viewBox="0 0 21 21" fill="none" xmlns="http://www.w3.org/2000/svg">
<path d="M10.6869 0.209961C5.10719 0.209961 0.583791 4.69766 0.583791 10.2354C0.583791 12.1296 1.11299 13.8999 2.03279 15.4119L0.209991 20.79L5.80439 19.0134C7.25129 19.8072 8.91659 20.2608 10.6869 20.2608C16.2666 20.2608 20.79 15.771 20.79 10.2354C20.79 4.69766 16.2666 0.209961 10.6869 0.209961ZM15.7101 14.0427C15.4728 14.6328 14.3976 15.1704 13.923 15.1935C13.4484 15.2187 13.4358 15.561 10.8528 14.4396C8.26979 13.3161 6.71579 10.5882 6.59399 10.4118C6.47219 10.2375 5.59439 8.98586 5.64059 7.72586C5.68889 6.46586 6.37769 5.87156 6.62339 5.62586C6.86909 5.37806 7.15049 5.33396 7.32269 5.33186C7.52639 5.32766 7.65869 5.32556 7.80779 5.33186C7.95899 5.33816 8.18369 5.30036 8.37899 5.82116C8.57429 6.34196 9.04259 7.61876 9.10139 7.75106C9.16019 7.88126 9.19799 8.03246 9.10559 8.20046C9.01319 8.36846 8.96489 8.47346 8.83259 8.61836C8.69819 8.76326 8.54909 8.94176 8.42939 9.05306C8.29499 9.17486 8.15429 9.30926 8.29709 9.57176C8.43779 9.83426 8.92499 10.6911 9.66419 11.3967C10.6155 12.3039 11.4366 12.6063 11.6907 12.7428C11.9448 12.8814 12.096 12.8646 12.2514 12.7008C12.4068 12.5349 12.9234 11.9784 13.1061 11.7285C13.2888 11.4786 13.4589 11.5269 13.692 11.6214C13.9251 11.7159 15.1683 12.3816 15.4224 12.5202C15.6765 12.6567 15.8445 12.7281 15.9054 12.8373C15.9663 12.9402 15.9474 13.4526 15.7101 14.0427Z" fill="#00BD1E"/>
</svg>
