<svg width="48" height="47" viewBox="0 0 48 47" fill="none" xmlns="http://www.w3.org/2000/svg">
<g id="46b129656b9eb5622087139e42fe40ef 1">
<g id="Group">
<g id="Group_2">
<path id="Vector" d="M24.1838 0.755312C23.5224 1.05517 22.8365 1.7268 22.5792 2.33874C22.4323 2.66257 22.2974 2.75845 21.599 2.9864C19.9085 3.51421 18.5976 4.33013 17.3112 5.6372C16.1107 6.87283 15.0326 8.5042 14.4202 10.0157C14.2488 10.4354 14.1754 10.5073 13.9301 10.4594C13.489 10.3753 13.0973 10.7593 13.0114 11.359L12.9379 11.875L14.065 12.9067L15.192 13.9261L14.8613 14.3458C14.1139 15.3056 13.8691 16.7447 14.2733 17.8962C14.5061 18.5678 15.2899 19.4674 15.9149 19.7795C16.307 19.9713 16.417 20.1273 16.5888 20.6434C18.0346 24.9617 20.2886 28.3086 22.3344 29.1959C24.0494 29.9395 27.0998 29.9038 28.7414 29.124C30.7138 28.1883 32.821 25.0336 34.2173 20.8953C34.4746 20.1278 34.6094 19.9116 34.8173 19.8519C35.2954 19.7438 36.1037 18.9523 36.4344 18.2807C37.0838 16.9853 36.9365 15.4137 36.0667 14.4182C35.8339 14.1423 35.6381 13.9026 35.6381 13.8664C35.6381 13.8425 36.1646 13.3988 36.8021 12.8827C38.027 11.9112 38.1005 11.7909 37.8312 11.0596C37.7453 10.8077 37.5739 10.6399 37.2432 10.52C36.8146 10.3522 36.6917 10.1962 36.1162 9.09264C35.0626 7.07728 33.5069 5.2659 31.9018 4.18678C31.2278 3.73088 29.7826 3.05925 29.0842 2.87924C28.6675 2.77114 28.5576 2.67526 28.4227 2.31524C28.3368 2.06332 28.0186 1.64361 27.7248 1.3555C26.7811 0.45545 25.3598 0.215752 24.1838 0.755312ZM26.2421 2.62685C26.4259 2.77067 26.6218 3.08275 26.6952 3.32245C26.7566 3.57437 26.8176 5.03795 26.8176 6.60916V9.46394H27.7363H28.655V7.12522C28.655 5.21796 28.6915 4.78603 28.8264 4.78603C28.9118 4.78603 29.4389 5.00176 29.9779 5.2659C31.2029 5.86562 32.6856 7.19713 33.5429 8.45673C34.1429 9.33234 35.3558 11.5874 35.2579 11.6715C35.2334 11.6838 34.4491 12.3074 33.5304 13.0392L31.8528 14.3825H25.213H18.5731L17.1888 13.1107C16.417 12.4151 15.7925 11.7674 15.7925 11.6833C15.7925 11.6114 16.1477 10.8434 16.5888 9.98C17.4586 8.2645 18.3408 7.13697 19.5288 6.18945C20.2147 5.64942 21.8198 4.78603 22.1506 4.78603C22.2485 4.78603 22.2854 5.44591 22.2854 7.12522V9.46441H23.2656H24.2448V6.5255C24.2448 3.35864 24.3062 2.97465 24.8693 2.57891C25.2619 2.31477 25.8619 2.33874 26.2421 2.62685ZM34.4006 15.534C34.8907 16.1459 34.8782 17.2373 34.3762 17.813C34.2048 17.993 33.8616 18.1848 33.5064 18.2689L32.9184 18.4127L32.3304 20.164C31.7059 22.0233 30.6518 24.3023 29.9904 25.2503C29.3899 26.1137 28.2874 27.2055 27.7363 27.4931C27.3322 27.7093 26.977 27.7573 25.715 27.793C24.8328 27.817 23.963 27.7808 23.6813 27.7089C21.8194 27.2172 19.957 24.566 18.4627 20.2359L17.8133 18.3648L17.3357 18.3046C16.7597 18.2205 16.1962 17.7289 16.0373 17.1409C15.8904 16.6131 16.0618 15.8696 16.3925 15.5457L16.6373 15.306L17.2253 15.7497C17.5435 15.9894 17.9112 16.2174 18.0581 16.2536C18.193 16.2775 21.5371 16.2898 25.4818 16.2775L32.6606 16.2413L33.2606 15.7375C33.5914 15.4616 33.9221 15.2337 34.008 15.2219C34.0824 15.2219 34.2658 15.3657 34.4006 15.534Z" fill="#FF6B00"/>
<path id="Vector_2" d="M9.76463 27.3851C9.05423 28.7885 8.79695 28.8844 7.21679 28.3086L6.29807 27.9608L4.93823 29.2801L3.56639 30.5994L3.92159 31.5469C4.49711 33.1064 4.42367 33.3343 2.97839 34.0299L1.94879 34.5347V36.4298V38.3253L2.94095 38.7934C3.88415 39.2493 4.26383 39.6088 4.27631 40.077C4.27631 40.1611 4.12943 40.6767 3.94559 41.2285L3.60239 42.2122L4.97423 43.5554L6.34607 44.8869L7.39967 44.5152C8.39183 44.1674 8.47775 44.1552 8.88191 44.3234C9.23711 44.4672 9.37199 44.6472 9.78863 45.5111L10.2662 46.531H12.2021H14.1504L14.665 45.5111C15.3634 44.1199 15.5717 44.0358 17.0659 44.5274L18.144 44.8874L19.4914 43.5559L20.8512 42.2366L20.4835 41.181C19.9814 39.7174 20.0669 39.5134 21.4882 38.8296L22.5293 38.3257V36.4185V34.5234L21.5126 34.0675C20.6794 33.6836 20.4715 33.5275 20.2997 33.1797C20.0914 32.76 20.1038 32.736 20.471 31.7166L20.8507 30.685L19.4909 29.3412L18.119 27.998L17.1144 28.3335C16.5509 28.5136 16.0243 28.6574 15.9384 28.6574C15.4608 28.6452 15.0931 28.2734 14.6275 27.3498L14.1504 26.3779H12.2146H10.2792L9.76463 27.3851ZM13.403 29.1246C13.7952 29.8921 13.8686 29.9644 14.4077 30.1562C14.7259 30.2638 15.1915 30.4438 15.4243 30.5642C15.841 30.7921 15.853 30.7799 16.7352 30.48L17.6419 30.1684L18.132 30.66L18.6341 31.1399L18.3034 32.0512C18.0216 32.807 17.9971 33.011 18.1195 33.1548C18.2054 33.2507 18.4013 33.6704 18.5482 34.0901C18.8054 34.8097 18.8419 34.8459 19.6872 35.2895L20.5694 35.7454V36.4298V37.1254L19.6507 37.569C19.0258 37.8689 18.732 38.0851 18.732 38.2167C18.732 38.3366 18.5606 38.7807 18.3643 39.2004L17.9966 39.9562L18.3029 40.8078L18.6216 41.6599L18.1195 42.1398L17.6294 42.6314L16.7107 42.3198C15.9269 42.0557 15.755 42.0317 15.5712 42.1638C15.4608 42.2479 15.0197 42.4397 14.591 42.5835C13.8317 42.8354 13.8192 42.8471 13.4026 43.6631L12.9739 44.4907H12.239H11.5042L11.0755 43.6631C10.6834 42.8956 10.6099 42.8232 10.0709 42.6314C9.75263 42.5233 9.29903 42.3433 9.06623 42.2235C8.64959 42.0077 8.63759 42.0077 7.90223 42.2836C7.49807 42.4397 7.08143 42.5717 6.97103 42.5717C6.86063 42.5717 6.57887 42.3677 6.32159 42.1158L5.88047 41.6721L6.19919 40.7843C6.50543 39.9444 6.51743 39.8965 6.32159 39.5247C6.19919 39.3207 6.01535 38.8771 5.88047 38.5532C5.67215 38.0014 5.59871 37.9173 4.81439 37.5338L3.96911 37.1141L3.93263 36.4302L3.89567 35.7346L4.81439 35.2905C5.59823 34.9187 5.74559 34.7866 5.81903 34.475C5.86799 34.2833 6.03935 33.8391 6.21119 33.5035L6.51743 32.8799L6.19919 32.04L5.88047 31.2123L6.41951 30.6967L6.95855 30.1806L7.81631 30.4923C8.68607 30.8043 8.68607 30.8043 9.07823 30.5881C9.29855 30.4565 9.76415 30.2643 10.1074 30.1562C10.7198 29.964 10.7568 29.9283 11.112 29.1246L11.4917 28.2969H12.2266H12.9744L13.403 29.1246Z" fill="#FF6B00"/>
<path id="Vector_3" d="M10.7079 31.7395C9.22561 32.2673 8.30689 33.0588 7.65745 34.4025C7.30225 35.1343 7.27777 35.2899 7.27777 36.4536C7.27777 37.6173 7.30225 37.7729 7.66993 38.5169C8.17201 39.5725 9.05425 40.4364 10.1323 40.928C10.8917 41.288 11.0511 41.312 12.2395 41.312C13.428 41.312 13.5869 41.288 14.3467 40.928C15.4863 40.4002 16.1967 39.7286 16.7477 38.6368C17.1888 37.7612 17.2008 37.677 17.2008 36.4658C17.2008 35.2899 17.1763 35.1343 16.8087 34.3903C16.3066 33.3347 15.4243 32.4708 14.3463 31.9792C13.6479 31.6676 13.3541 31.5957 12.4229 31.5713C11.6026 31.5355 11.1615 31.5835 10.7079 31.7395ZM13.2442 33.5988C13.8936 33.7906 14.8613 34.6545 15.1186 35.2782C15.4493 36.0696 15.4128 37.0176 15.0082 37.8213C13.9181 40.0045 10.8672 40.1243 9.59329 38.0371C8.73553 36.6576 9.07873 35.0023 10.4266 34.0186C11.1859 33.4668 12.2515 33.3107 13.2442 33.5988Z" fill="#FF6B00"/>
<path id="Vector_4" d="M29.268 30.6483C28.5087 31.3918 27.541 32.0038 26.6463 32.2797C25.164 32.7473 23.3875 32.3995 22.2485 31.4163C21.9912 31.2001 21.7709 31.0445 21.7464 31.0685C21.673 31.1766 21.1829 32.5917 21.1829 32.7238C21.1829 32.8079 21.6975 33.1078 22.3344 33.3954C22.9714 33.6836 23.5104 33.9834 23.5349 34.0553C23.5963 34.2471 24.4291 34.4153 25.2869 34.4153C26.8306 34.4153 28.4107 33.8274 29.8565 32.7121L30.6403 32.1123L32.0861 32.4841C37.0109 33.7197 41.017 36.5745 42.8789 40.1973C43.4299 41.2647 43.896 42.7762 44.0184 43.8558L44.1039 44.6115H31.9383H19.7856L19.0627 45.2954L18.3523 45.991L17.2128 45.5952C16.5879 45.3913 16.0368 45.2112 15.9999 45.2112C15.9264 45.2112 15.3015 46.3266 15.3015 46.4708C15.3015 46.5066 22.2231 46.531 30.6759 46.531H46.0503V45.2954C46.0503 41.5048 44.7149 38.47 41.7749 35.603C39.7167 33.5999 37.1933 32.1123 34.1429 31.1169C33.0039 30.7451 30.3451 30.097 29.953 30.097C29.868 30.0965 29.5618 30.3484 29.268 30.6483Z" fill="#FF6B00"/>
</g>
</g>
</g>
</svg>
