<svg width="67" height="67" viewBox="0 0 67 67" fill="none" xmlns="http://www.w3.org/2000/svg">
<g id="3aed225f7f220a68ec25137b0ff4262e 1" clip-path="url(#clip0_25_489)">
<g id="Group">
<g id="Group_2">
<path id="Vector" d="M27.6364 8.53161C26.8618 8.6951 26.4479 9.19118 26.1472 10.3133L25.9168 11.1733L25.0334 11.2401C24.5434 11.2659 23.775 11.3641 23.3157 11.4432L22.489 11.5927L21.9814 10.7596C21.3867 9.79115 20.9685 9.46511 20.2702 9.46946C19.9225 9.46638 19.3174 9.75357 17.5096 10.7529C16.2285 11.4659 15.0686 12.1444 14.9215 12.2734C14.5981 12.5578 14.3551 13.3806 14.458 13.835C14.4999 14.0146 14.7239 14.4795 14.9566 14.8678L15.3745 15.5755L14.7735 16.2236C14.4515 16.5867 13.9618 17.1976 13.6834 17.6061L13.1867 18.3272L12.2004 18.1079C11.1329 17.8557 10.8399 17.9005 10.2256 18.3879C9.94294 18.6044 9.88471 18.7797 9.17033 21.3197C8.45877 23.8492 8.41592 24.0512 8.511 24.4927C8.66756 25.2092 8.94784 25.464 10.0111 25.8164L10.9305 26.1191L10.9889 27.034C11.0224 27.5373 11.1243 28.3737 11.2107 28.8918L11.3769 29.8243L10.7038 30.1952C10.3342 30.3997 9.95831 30.67 9.856 30.7997C9.61872 31.141 9.45945 31.8173 9.54043 32.1876C9.58225 32.3677 10.2133 33.5368 10.9558 34.792C12.0181 36.6167 12.3648 37.1257 12.6935 37.3258C13.3292 37.7208 13.8093 37.6924 14.6516 37.2322L15.3774 36.831L16.0311 37.411L16.6876 37.9805L17.4623 37.9409C18.4164 37.9043 19.3605 37.9889 20.1364 38.1968C20.7028 38.3486 20.7399 38.336 21.4313 37.9368C21.817 37.7141 22.1025 37.4871 22.0584 37.4415C22.0248 37.3988 21.7068 37.2009 21.3548 37.0058C20.5853 36.5637 19.4568 36.3289 18.08 36.308L17.1505 36.2948L16.4618 35.5934C16.0813 35.2105 15.731 34.8807 15.6785 34.8666C15.626 34.8525 15.1427 35.1054 14.5868 35.417L13.5924 35.9822L12.3471 33.9177L11.1001 31.8639L12.1857 31.2105L13.2789 30.5705L12.9692 29.251C12.6992 28.0773 12.567 26.6815 12.5803 25.2914L12.5826 24.8202L11.3344 24.4857L10.0762 24.1486L10.6944 21.8413L11.3127 19.5339L12.6129 19.8823L13.9132 20.2307L14.6085 19.1468C14.9895 18.563 15.6278 17.7341 16.0116 17.3082C16.4058 16.8856 16.8807 16.3721 17.0714 16.1648L17.4228 15.7758L16.7148 14.6418L16.0177 13.5113L18.1481 12.2725L20.2785 11.0336L20.9773 12.244L21.676 13.4543L23.1506 13.1523C23.9695 12.9894 25.1886 12.8442 25.8685 12.8243L27.1122 12.7977L27.5146 11.4218L27.917 10.046L30.2918 10.7048L32.6637 11.3742L32.3537 12.741L32.0438 14.1079L32.964 14.6579C34.1525 15.3812 34.7432 15.8205 35.6687 16.6867L36.4205 17.4051L37.6308 16.7063L38.8412 16.0075L40.0695 18.1351L41.2979 20.2626L40.1311 20.883L38.9648 21.5035L39.2984 22.8181C39.6466 24.2042 39.7822 25.2068 39.8304 26.5801L39.851 27.3835L40.5894 27.0194C40.9904 26.8233 41.3502 26.5712 41.3782 26.4667C41.4682 26.131 41.319 24.5065 41.1002 23.436L40.8857 22.3893L41.6978 21.876C42.5869 21.3276 42.756 21.1145 42.868 20.4024C42.9462 19.8163 42.9567 19.8192 41.3535 17.1193C40.3038 15.3318 39.9619 14.8466 39.6514 14.6626C39.0383 14.3075 38.5054 14.3668 37.5672 14.8908C37.1205 15.1309 36.7195 15.3269 36.6675 15.313C36.6254 15.3017 36.3262 15.0757 36.0073 14.7988C35.685 14.5328 35.0872 14.0804 34.6782 13.8019L33.9151 13.2939L34.1288 12.3281C34.3882 11.1499 34.3091 10.6906 33.72 10.1617C33.3387 9.8236 33.205 9.7765 30.7405 9.11616C28.2751 8.45554 28.1357 8.42945 27.6364 8.53161Z" fill="#FF6B00"/>
<path id="Vector_2" d="M51.0607 19.9C49.2185 19.8113 47.7124 20.2732 46.2032 21.375C44.7929 22.4019 43.9945 23.6604 43.5461 25.5859L43.2516 26.8111L32.0571 33.1855L20.8597 39.5703L19.6261 39.3074C17.6893 38.901 16.4331 39.0588 14.8629 39.8858C11.3021 41.7645 10.2284 46.2758 12.5616 49.5649C13.4751 50.8547 14.7377 51.7218 16.3449 52.1411C17.5301 52.4587 18.1301 52.4849 19.4088 52.2431C20.2117 52.0984 20.612 51.9472 21.4128 51.476C23.0881 50.5088 24.0226 49.2867 24.5144 47.4511L24.7785 46.4656L35.9965 40.0857L47.2154 33.7066L48.7048 34.1056C50.0289 34.4492 50.289 34.4851 51.1113 34.4357C53.5656 34.2954 55.9128 32.8337 57.0966 30.723C57.653 29.7369 58.0071 28.4157 58.0155 27.2935C58.0361 25.7477 58.313 25.7211 54.9127 27.631C53.2592 28.559 51.7446 29.3446 51.5363 29.3677C51.0798 29.4362 50.5317 29.3006 50.1646 29.0339C49.8051 28.7805 48.8478 27.1523 48.782 26.6854C48.7085 26.2051 48.8323 25.7433 49.136 25.3641C49.2601 25.1952 50.676 24.3156 52.3751 23.3435L55.3982 21.6248L55.0085 21.3182C54.065 20.5587 52.3815 19.9617 51.0607 19.9ZM19.6665 43.3087C20.3989 43.7634 20.99 44.7872 20.9986 45.6774C21.0663 48.6967 16.9921 49.8078 15.4822 47.178C14.7658 45.9516 15.014 44.4787 16.0963 43.5435C16.6124 43.0861 17.1026 42.8914 17.8148 42.835C18.5487 42.7839 19.0099 42.9075 19.6665 43.3087Z" fill="#FF6B00"/>
<path id="Vector_3" d="M25.4769 17.9338C24.2179 17.9337 23.0911 18.2388 21.9369 18.8963C19.3099 20.3957 17.9752 23.3196 18.5734 26.2902C18.7845 27.3473 19.6031 28.949 20.3254 29.6932C22.2877 31.7252 25.1252 32.4179 27.7789 31.5333C29.5219 30.944 30.9949 29.641 31.8292 27.9541C33.3507 24.8775 32.2565 21.0325 29.3107 19.0629C28.4042 18.4597 26.5909 17.9288 25.4769 17.9338ZM28.1422 20.278C29.4778 21.0407 30.504 22.4959 30.787 23.9991C31.439 27.5235 28.4229 30.6827 24.8326 30.2382C22.1022 29.9001 20.0397 27.5716 20.0645 24.8355C20.0822 21.9179 22.5076 19.5779 25.499 19.5703C26.2836 19.5779 27.4267 19.8842 28.1422 20.278Z" fill="#FF6B00"/>
<path id="Vector_4" d="M53.2305 35.8801C53.0614 35.9248 52.7418 36.1089 52.5334 36.3003C52.3117 36.4993 52.0931 36.6429 52.03 36.626C51.9775 36.6119 51.6592 36.459 51.3144 36.2771C50.4083 35.7984 48.4745 35.0888 47.8436 35.0099C47.355 34.9465 47.233 34.9814 46.6285 35.3926L45.9573 35.8423L46.6897 36.1286C49.3453 37.1662 50.6811 37.76 51.3427 38.1845C51.768 38.4443 52.1325 38.6771 52.164 38.6855C52.1955 38.694 52.4753 38.488 52.7798 38.2323C53.0737 37.9738 53.3536 37.7678 53.3961 37.7792C53.5427 37.8185 54.3608 38.8356 54.3299 38.9511C54.313 39.0142 54.0695 39.2524 53.7835 39.4793L53.2758 39.9052L53.6217 40.6274C54.0621 41.5433 54.3232 42.2878 54.5015 43.1334C54.5742 43.4902 54.6378 43.7994 54.6455 43.8128C54.6532 43.8261 54.9924 43.8607 55.3998 43.891C56.1177 43.9375 56.1464 43.9565 56.1322 44.1774C56.096 45.0669 56.0614 45.4062 56.0027 45.4574C55.9704 45.4938 55.6913 45.4866 55.3969 45.4528C55.092 45.4161 54.7731 45.4314 54.6694 45.4825C54.5628 45.544 54.3746 45.9542 54.1836 46.4987C54.0173 46.9936 53.6298 47.8115 53.3288 48.3041C53.039 48.7996 52.8025 49.2199 52.8179 49.2465C52.8361 49.2627 53.0323 49.4949 53.2648 49.7599L53.6676 50.2276L53.0797 50.7447C52.4254 51.2996 52.4701 51.3009 51.881 50.6036L51.5812 50.2536L50.6295 50.7058C50.1009 50.9577 49.1978 51.2664 48.6109 51.4014L47.5382 51.6309L47.4853 52.1223C47.4571 52.3958 47.4366 52.6825 47.4484 52.7645C47.4546 52.8675 47.2541 52.9033 46.8118 52.8749C46.4592 52.848 46.0938 52.8289 45.991 52.8346C45.8431 52.84 45.8144 52.6972 45.8491 52.1895L45.8993 51.5397L44.9411 51.2154C44.3966 51.0244 43.6256 50.672 43.1253 50.3578C42.6509 50.073 42.1869 49.7916 42.1008 49.7347C41.9937 49.6723 41.8266 49.7514 41.5888 49.9686C41.3932 50.1521 41.1877 50.333 41.1421 50.3771C41.086 50.4183 40.8106 50.1875 40.5186 49.8502L39.9967 49.2385L40.435 48.8616C40.67 48.6548 40.8789 48.4636 40.8845 48.4426C40.8901 48.4216 40.69 47.9519 40.4407 47.4132C40.1915 46.8746 39.8857 45.9604 39.769 45.3897C39.6417 44.8162 39.4969 44.35 39.431 44.3437C39.3757 44.3401 39.0812 44.3062 38.7764 44.2691L38.2352 44.1916L38.2789 43.7765C38.2987 43.5346 38.3333 43.1953 38.3395 43.0061L38.3636 42.664L39.0267 42.7066L39.6898 42.7497L39.9656 42.0145C40.1201 41.606 40.5461 40.6863 40.9221 39.9554C41.2954 39.235 41.5952 38.6183 41.5798 38.5917C41.5644 38.565 41.037 38.7722 40.4109 39.0538L39.2751 39.5586L38.9116 40.3266L38.5515 41.0843L38.1282 41.0272C37.5737 40.9574 37.139 41.1107 36.9622 41.4344C36.8753 41.5907 36.7674 42.3715 36.6983 43.3417C36.5506 45.4041 36.6157 45.5792 37.5661 45.7663L38.2068 45.8929L38.3047 46.324C38.3536 46.5617 38.5166 47.044 38.6503 47.3834L38.9037 47.9907L38.5769 48.3299C38.135 48.7622 37.9945 49.2865 38.2361 49.6435C38.3313 49.7928 38.8575 50.4282 39.4005 51.0456C40.6257 52.4302 40.8976 52.5481 41.6404 52.0393L42.1199 51.7185L42.956 52.1221C43.4025 52.3431 43.8777 52.5825 43.9877 52.6345C44.1474 52.7111 44.1896 52.8457 44.1606 53.1639C44.1169 53.579 44.4501 54.2646 44.7228 54.3377C44.9849 54.4079 47.8576 54.5932 48.1584 54.5612C48.6231 54.5061 48.9403 54.1186 49.0298 53.4906C49.0988 52.9809 49.0987 52.9809 49.5699 52.8594C49.8238 52.7923 50.2928 52.637 50.6083 52.5081L51.1757 52.2778L51.5198 52.6285C51.8798 53.0059 52.306 53.1764 52.6761 53.096C52.7952 53.0716 53.4593 52.5643 54.1432 51.9829C55.7437 50.6246 55.8876 50.2138 55.0904 49.3707L54.7926 49.055L55.0782 48.5357C55.2304 48.2618 55.4508 47.8152 55.5631 47.5643C55.7582 47.0884 55.7582 47.0884 56.2602 47.1441C56.8147 47.2139 57.478 46.9197 57.5735 46.563C57.655 46.2588 57.8164 43.5594 57.7802 43.1904C57.7285 42.6709 57.3222 42.3819 56.5938 42.3331C56.2517 42.309 55.9783 42.2808 55.9734 42.257C55.9657 42.2436 55.904 42.0137 55.8292 41.7465C55.7549 41.4794 55.6117 41.0474 55.5002 40.7929L55.3001 40.3232L55.7573 39.9175C56.263 39.4573 56.4062 39.0908 56.2467 38.6776C56.1514 38.4048 54.6664 36.6466 54.1058 36.1371C53.7633 35.8207 53.6405 35.7765 53.2305 35.8801Z" fill="#FF6B00"/>
<path id="Vector_5" d="M46.8568 39.3654C44.4886 39.5625 42.5654 41.3287 42.3096 43.5423C42.1673 44.7857 42.3581 45.6685 43.02 46.7225C44.6253 49.2884 48.1595 49.7742 50.4005 47.7446C51.8656 46.4288 52.3666 44.2252 51.6253 42.419C51.3096 41.6261 50.6904 40.8312 50.0246 40.3381C49.3011 39.8064 47.6611 39.2993 46.8568 39.3654ZM49.0904 41.6835C49.6951 42.1941 50.081 42.7693 50.2608 43.4808C50.4015 44.0466 50.3879 44.2232 50.1772 45.0096C49.9608 45.8171 49.8927 45.9452 49.4586 46.3908C48.2661 47.6113 46.2837 47.7096 45.0252 46.619C43.2861 45.0967 43.6171 42.3526 45.6642 41.3386C45.9881 41.1782 46.4648 41.0363 46.7313 41.0063C47.4434 40.9499 48.602 41.2829 49.0904 41.6835Z" fill="#FF6B00"/>
</g>
</g>
</g>
<defs>
<clipPath id="clip0_25_489">
<rect width="54.3882" height="54.3882" fill="white" transform="translate(14.3057) rotate(15)"/>
</clipPath>
</defs>
</svg>
