<svg width="41" height="41" viewBox="0 0 41 41" fill="none" xmlns="http://www.w3.org/2000/svg">
<g id="03847d5a7b67b24cea67d7d95fefec5f 1">
<g id="Group">
<g id="Group_2">
<path id="Vector" d="M13.9433 3.11202C12.0893 3.42485 11.0393 4.66469 10.9167 6.67492L10.8609 7.64662L10.2242 7.82538C9.01795 8.17183 8.11308 9.14353 7.87856 10.3497C7.8228 10.6736 7.76704 11.7011 7.76704 12.6171V14.2812L7.33162 14.8286C6.50506 15.8786 6.20371 17.1963 6.20371 19.7543V21.1951H5.16518C3.95896 21.1951 3.12133 20.9827 2.75274 20.592C2.3944 20.2119 2.33864 19.553 2.61785 19.1061C2.93068 18.6145 3.27672 18.4136 4.03645 18.2906C5.14222 18.1119 5.53295 17.3636 4.89663 16.6154C4.60635 16.2578 4.5838 16.2578 3.8581 16.3025C2.48378 16.4034 1.2997 17.1738 0.71914 18.3579C0.451 18.8941 0.451 18.9499 0.41738 22.5128C0.38376 26.5673 0.43952 27.0585 1.10987 28.0749C1.53422 28.7116 2.38333 29.3258 3.2431 29.6275C3.58955 29.7505 4.28163 29.851 5.05243 29.8846L6.30334 29.9293L6.33696 32.1855C6.37058 34.2072 6.40379 34.4975 6.63831 35.0674C6.98476 35.9497 7.79984 36.821 8.69323 37.2564C10.134 37.9714 9.66493 37.9489 24.4085 37.9489C37.5211 37.9489 37.8118 37.9489 38.4035 37.7254C39.1406 37.4462 39.8778 36.7427 40.2575 35.9383L40.5478 35.3241L40.5814 23.4287C40.6035 14.7277 40.5814 11.4104 40.492 11.0865C40.2128 10.137 39.4978 9.53385 38.1911 9.14312C36.326 8.5847 15.473 3.12309 15.0261 3.06692C14.7477 3.03371 14.2561 3.05585 13.9433 3.11202ZM26.5869 8.12673C32.7967 9.77985 38.0017 11.187 38.1694 11.2542C38.5826 11.444 38.7725 11.9356 38.5937 12.36C38.3034 13.075 38.9844 13.0414 25.2798 13.0414C14.0659 13.0414 10.5251 13.1082 9.96669 13.3317C9.799 13.3874 9.77686 13.2759 9.77686 12.1365C9.77686 10.6732 9.93307 10.2267 10.5477 9.86923C10.8269 9.71302 11.1172 9.65685 11.7203 9.65685C12.1557 9.66792 17.104 10.3046 22.7107 11.0754C29.8812 12.0582 32.9865 12.4494 33.1653 12.371C33.802 12.1365 34.0029 11.2317 33.5113 10.7515C33.3662 10.5953 33.1764 10.4723 33.0981 10.4723C33.0198 10.4613 28.4515 9.84668 22.9563 9.09843L12.9597 7.72452L12.9261 7.0431C12.8703 5.89264 13.2836 5.27846 14.2217 5.11077C14.4562 5.06608 14.7912 5.05501 14.9699 5.08822C15.161 5.12225 20.3881 6.48509 26.5869 8.12673ZM38.4039 35.19C38.2924 35.3688 38.0578 35.6258 37.8901 35.7595L37.5773 35.994H24.3753C13.8428 35.994 11.0392 35.9604 10.5366 35.8489C9.62065 35.6365 8.89495 35.1117 8.5485 34.4303C8.28036 33.894 8.26929 33.7825 8.26929 31.9174V29.9629L11.4525 29.9072C14.6132 29.8514 14.6358 29.8514 15.2725 29.5496C16.1659 29.1364 16.8584 28.4439 17.2942 27.5726C17.6292 26.8801 17.6517 26.7571 17.6517 25.6067C17.6517 24.4451 17.6296 24.3332 17.2942 23.6407C16.8252 22.6912 15.9761 21.8761 15.0827 21.5186C14.4459 21.273 14.2672 21.2504 11.2963 21.2172L8.18032 21.1836L8.24715 19.2623C8.28077 18.1566 8.37015 17.1512 8.45953 16.8946C8.67191 16.2242 9.37547 15.5879 10.1684 15.3308C10.8051 15.1299 11.464 15.1185 24.5992 15.0516C32.1608 15.018 38.3932 14.9512 38.449 14.9065C38.4937 14.8507 38.5494 19.3185 38.572 24.8359C38.5937 34.2183 38.5826 34.8772 38.4039 35.19ZM8.77195 23.2053C14.6468 23.2611 14.5128 23.25 15.0937 23.8978C15.5853 24.4226 15.7194 24.8695 15.6747 25.7182C15.63 26.6788 15.2725 27.3155 14.58 27.6727C14.1557 27.8846 13.9433 27.8961 9.25206 27.8961C6.14713 27.8961 4.20373 27.8514 3.93559 27.7731C3.35462 27.6169 2.66213 26.9691 2.51699 26.4664C2.46123 26.2319 2.40547 25.316 2.40547 24.4222V22.7805L2.88558 22.9704C3.28779 23.127 4.12542 23.1606 8.77195 23.2053Z" fill="#FF6B00"/>
<path id="Vector_2" d="M12.7928 24.97C12.3459 25.428 12.3348 25.897 12.7817 26.3439C13.2286 26.7908 13.6977 26.7797 14.1557 26.3328C14.4459 26.0311 14.4906 25.9306 14.4349 25.5846C14.3902 25.3611 14.2672 25.0819 14.1557 24.9704C14.0441 24.8589 13.7645 24.7359 13.5415 24.6912C13.195 24.635 13.0946 24.6797 12.7928 24.97Z" fill="#FF6B00"/>
</g>
</g>
</g>
</svg>
