<svg width="18" height="19" viewBox="0 0 18 19" fill="none" xmlns="http://www.w3.org/2000/svg">
<g id="d68828195658f6ca98d3f9908842a34e 1" clip-path="url(#clip0_28_604)">
<g id="Group">
<path id="Vector" d="M8.99999 0.180786C4.12919 0.180786 0.179993 4.14091 0.179993 9.02519C0.179993 13.9095 4.12919 17.8696 8.99999 17.8696C13.8708 17.8696 17.82 13.9095 17.82 9.02519C17.82 4.14091 13.8708 0.180786 8.99999 0.180786ZM14.823 6.72023L8.51219 12.8987C8.48159 12.9294 8.44739 12.9528 8.41319 12.9781C8.36819 13.072 8.30879 13.1622 8.23139 13.2416C7.88759 13.5864 7.34579 13.6044 7.02359 13.2813L3.22919 9.47824C2.90699 9.15515 2.92499 8.61366 3.26879 8.2671C3.61259 7.92235 4.15439 7.9043 4.47659 8.22559L7.57979 11.3392L13.59 5.45494C13.9392 5.1138 14.4972 5.12102 14.8374 5.46938C15.1776 5.81955 15.1722 6.37909 14.823 6.72023Z" fill="#FF6B00"/>
</g>
</g>
<defs>
<clipPath id="clip0_28_604">
<rect width="18" height="18.0498" fill="white"/>
</clipPath>
</defs>
</svg>
