<svg width="31" height="34" viewBox="0 0 31 34" fill="none" xmlns="http://www.w3.org/2000/svg">
<g id="Group">
<g id="Group_2">
<path id="Vector" d="M14.1273 0.176135C14.0022 0.295292 13.9536 0.421659 13.9536 0.611211C13.9536 0.877683 13.9536 0.877684 13.5646 0.969026C12.6616 1.18639 11.439 1.83884 10.675 2.51944C9.21637 3.80338 8.35482 5.44479 8.1464 7.34615C8.10458 7.77402 8.09097 7.79531 7.68807 8.14591C7.19507 8.58099 7.12537 8.72109 7.26443 9.05074C7.56295 9.78732 8.75091 10.4679 10.4111 10.8467C11.7936 11.1623 12.8979 11.2536 15.2388 11.2536C17.4964 11.2536 18.5242 11.1695 19.8927 10.8817C21.5597 10.5239 22.9908 9.78732 23.2546 9.12766C23.4144 8.74169 23.3379 8.55935 22.831 8.17338C22.574 7.98383 22.3516 7.75959 22.3309 7.68233C22.3169 7.60507 22.2683 7.26854 22.2268 6.93854C22.1435 6.2861 21.8657 5.38126 21.5601 4.77071C21.0946 3.83051 20.1987 2.77114 19.3025 2.09775C18.7884 1.71178 17.6494 1.15755 17.066 1.00336L16.5937 0.884207V0.610525C16.5937 0.420973 16.5451 0.294948 16.42 0.175447C16.2602 0.00718498 16.2187 -2.57492e-05 15.2738 -2.57492e-05C14.329 0.000660896 14.2871 0.00787258 14.1273 0.176135Z" fill="white"/>
<path id="Vector_2" d="M8.38305 11.415C8.06345 11.7869 8.01483 11.9974 8.01483 13.0496C8.02163 14.0039 8.03557 14.1021 8.23719 14.6773C8.50103 15.4489 8.93861 16.2208 9.45269 16.8379C9.72367 17.1607 9.89707 17.4481 9.99465 17.7499C10.8491 20.3175 13.0234 22.1134 15.2738 22.1134C17.5243 22.1134 19.6986 20.3175 20.5459 17.7637C20.6431 17.469 20.8376 17.1535 21.1365 16.7747C21.6852 16.0941 22.0395 15.4557 22.3173 14.6701C22.5186 14.1017 22.5325 14.0035 22.5325 13.0496C22.5325 12.0956 22.5257 12.0112 22.3588 11.7238C22.0878 11.2396 22.0602 11.2327 21.1293 11.5273C19.4412 12.0675 17.6283 12.2426 14.447 12.1866C11.849 12.1444 10.6264 11.9761 9.13309 11.4641C8.55645 11.2605 8.51497 11.2605 8.38305 11.415Z" fill="white"/>
<path id="Vector_3" d="M8.84815 20.5142C4.93067 22.1065 3.61759 22.8221 2.60337 23.9237C1.20733 25.446 0.220646 27.9998 0.0193655 30.6024C-0.0153145 31.1006 -0.00851439 31.2479 0.0819256 31.3812C0.283546 31.6899 2.28377 32.3633 4.08985 32.7211C9.98035 33.9068 19.4548 33.97 25.7271 32.8615C27.3662 32.5669 29.0197 32.1109 30.0964 31.6408C30.5619 31.4443 30.5966 31.3252 30.4922 30.2727C30.263 27.8525 29.2628 25.3687 27.9568 23.9378C26.8664 22.7521 25.5187 22.0365 20.7468 20.1286L20.4204 20.0022L20.3374 20.4016C20.1916 21.1381 19.5109 23.5587 19.1566 24.639C18.4202 26.856 17.4202 29.087 16.1765 31.2898C15.4751 32.5247 15.3221 32.6648 15.0164 32.321C14.5717 31.8368 12.7241 28.2168 12.0989 26.6245C11.4529 24.9549 10.779 22.794 10.3346 20.928C10.2166 20.4369 10.1123 20.0231 10.1055 20.0159C10.1055 20.0159 9.53597 20.2333 8.84815 20.5142Z" fill="white"/>
<path id="Vector_4" d="M13.8428 23.3195C13.7802 23.4809 14.2038 25.4738 14.3082 25.5439C14.3636 25.5789 14.7944 25.6071 15.2738 25.6071C15.7532 25.6071 16.1837 25.5789 16.2394 25.5439C16.3435 25.4738 16.7674 23.4809 16.7049 23.3195C16.6488 23.1722 13.8982 23.1722 13.8428 23.3195Z" fill="white"/>
<path id="Vector_5" d="M14.2664 26.1826C14.1899 26.4 13.8149 28.1327 13.8149 28.28C13.8149 28.4905 15.1623 31.0721 15.2735 31.0793C15.3153 31.0793 15.5098 30.7356 16.1905 29.4657C16.5376 28.8061 16.7324 28.3714 16.7253 28.2381C16.7253 28.119 16.6212 27.5998 16.5029 27.0806L16.2806 26.1335L15.2874 26.1125C14.5374 26.0985 14.2871 26.1125 14.2664 26.1826Z" fill="white"/>
</g>
</g>
</svg>
