<svg width="41" height="42" viewBox="0 0 41 42" fill="none" xmlns="http://www.w3.org/2000/svg">
<g id="1430ee53329b99216409f52634f2fd84 1">
<g id="Group">
<g id="Group_2">
<path id="Vector" d="M15.9966 0.531317C15.9461 0.582975 15.8125 1.2344 15.687 1.96352C15.5698 2.69222 15.4361 3.36128 15.4025 3.45536C15.3607 3.56666 15.1261 3.66956 14.5571 3.82412C14.1216 3.94424 13.703 4.04714 13.628 4.05554C13.5526 4.05554 13.1175 3.6011 12.6153 2.9921C12.1381 2.40032 11.6776 1.8686 11.6026 1.80896C11.4853 1.70606 11.293 1.79173 10.1627 2.45197C9.45132 2.86357 8.84863 3.26678 8.8232 3.34364C8.79819 3.42092 9.0073 4.12399 9.28364 4.90436L9.78589 6.31934L9.09914 7.01402L8.40419 7.71709L7.00609 7.2026C6.2275 6.91952 5.54977 6.70532 5.49934 6.72254C5.44071 6.74816 5.05572 7.36555 4.65392 8.08586C4.13486 9.00356 3.93396 9.44918 3.98439 9.53486C4.01801 9.60332 4.55347 10.0922 5.16478 10.6239C6.002 11.3442 6.26973 11.6185 6.22791 11.7302C6.19429 11.8075 6.08564 12.2103 5.98519 12.6219C5.87654 13.0335 5.75928 13.4106 5.71746 13.4451C5.67564 13.4795 5.02251 13.6164 4.26114 13.7538C3.49936 13.8823 2.82983 14.028 2.7794 14.0709C2.69576 14.1393 2.67075 14.5681 2.67075 15.6828C2.67075 16.7975 2.69576 17.2263 2.7794 17.2948C2.82983 17.3376 3.49075 17.4922 4.24433 17.6207C4.99791 17.758 5.65063 17.8866 5.69245 17.921C5.75928 17.9554 6.01881 18.8127 6.23652 19.7131C6.25333 19.7904 5.85153 20.1848 5.13977 20.785C4.52026 21.3003 3.99259 21.7804 3.96758 21.8488C3.90895 22.003 5.34026 24.5843 5.51615 24.6444C5.59159 24.67 6.37838 24.4129 7.27423 24.0786C8.88963 23.4784 9.8191 23.2298 10.4636 23.2298C10.74 23.2298 10.8068 23.1954 10.8736 23.0068C10.924 22.8867 10.9573 22.7409 10.9573 22.6725C10.9573 22.6124 10.5637 22.218 10.0782 21.8148C9.12374 21.0004 8.86462 20.6056 8.86462 19.9882C8.86462 19.491 9.00688 19.1734 9.83549 17.8618L10.5555 16.7215L10.5805 15.5812C10.6141 14.0293 10.9322 12.923 11.6854 11.7655C13.3344 9.2186 16.3816 7.9838 19.236 8.70409C19.8891 8.86705 20.9941 9.38156 21.5463 9.76754L21.9399 10.0418L23.3798 10.0246C25.2966 9.99014 25.2216 9.98174 25.6066 10.3333C26.0334 10.7277 26.2511 11.3367 26.3683 12.4513C26.4688 13.3774 26.5192 13.4976 26.7869 13.566C26.921 13.6005 27.0465 13.5148 27.3146 13.2145C28.2019 12.1939 28.5786 11.8167 29.7672 10.7877C30.4704 10.1787 31.0813 9.61298 31.1235 9.5273C31.1821 9.40718 31.0481 9.1073 30.504 8.14676C30.1272 7.4777 29.759 6.86912 29.6922 6.79184C29.5749 6.68054 29.4077 6.72338 28.1354 7.19504L26.7123 7.72676L26.026 7.02368L25.3478 6.31178L25.8583 4.86278C26.2433 3.75649 26.3437 3.37934 26.2769 3.28484C26.076 3.0446 23.682 1.6985 23.573 1.76696C23.5061 1.8014 23.0371 2.3327 22.5348 2.9501C22.0326 3.5591 21.564 4.05638 21.4971 4.05638C21.179 4.02193 19.8649 3.63638 19.7813 3.5591C19.7308 3.50743 19.5886 2.84719 19.4549 2.09287C19.3295 1.33813 19.1954 0.652275 19.1536 0.566595C19.0781 0.438076 18.919 0.420856 17.58 0.420856C16.482 0.420017 16.0634 0.445637 15.9966 0.531317Z" fill="#FF6B00"/>
<path id="Vector_2" d="M21.8563 11.156C21.8145 11.2161 21.6722 11.902 21.5467 12.6823C21.4127 13.4627 21.279 14.1313 21.2454 14.1742C21.2118 14.217 20.8436 14.3371 20.4418 14.4484C20.04 14.5513 19.6464 14.6626 19.5714 14.6971C19.4627 14.7399 19.1946 14.4656 18.4914 13.608C17.9724 12.9822 17.4951 12.4333 17.4283 12.3988C17.3028 12.3215 14.758 13.7621 14.6825 13.9507C14.6657 14.0108 14.8752 14.7055 15.1511 15.4942L15.6534 16.9348L14.9671 17.6379L14.2807 18.341L12.8826 17.8265C12.1126 17.5434 11.4345 17.3292 11.3677 17.3548C11.3008 17.3804 10.924 17.9894 10.5222 18.7009C9.96998 19.7043 9.8191 20.0386 9.87773 20.1587C9.91955 20.236 10.4468 20.7245 11.0413 21.2306C11.9035 21.9681 12.1212 22.1911 12.0876 22.328C11.8281 23.3999 11.6272 24.0345 11.5349 24.0857C11.4681 24.1202 10.815 24.2571 10.0786 24.386C9.34186 24.5146 8.68914 24.6603 8.63871 24.7031C8.55507 24.7716 8.53006 25.2004 8.53006 26.3239C8.53006 27.7045 8.54687 27.859 8.68053 27.9359C8.76417 27.9787 9.40869 28.1161 10.1204 28.2446C10.8318 28.3647 11.4681 28.4932 11.5349 28.5277C11.6272 28.5793 11.8531 29.3164 12.0876 30.3026C12.1126 30.4399 11.8949 30.6713 10.9995 31.4173C10.38 31.9318 9.86092 32.4118 9.82771 32.4807C9.78589 32.592 11.1254 35.0532 11.3345 35.2334C11.4267 35.3107 11.7613 35.2162 12.8662 34.8046L14.2893 34.2728L14.9675 34.9847L15.6538 35.6966L15.1434 37.1456C14.7584 38.2519 14.6579 38.6207 14.7334 38.7148C14.7838 38.7748 15.3861 39.1608 16.0642 39.5636C16.9096 40.0609 17.3533 40.2839 17.4287 40.2322C17.4955 40.1978 17.9478 39.6749 18.4332 39.0747C18.9272 38.4833 19.3541 37.9688 19.3959 37.9516C19.4627 37.9088 20.9362 38.2775 21.1704 38.3977C21.254 38.4405 21.3631 38.9033 21.5221 39.8294C21.6476 40.5754 21.7899 41.2784 21.8403 41.3818C21.9157 41.5787 21.9489 41.5787 23.4225 41.5787C24.5188 41.5787 24.9374 41.5531 25.0047 41.4758C25.0465 41.4158 25.1888 40.7639 25.306 40.0352C25.4315 39.3065 25.5574 38.6375 25.5906 38.543C25.641 38.4317 25.8669 38.3288 26.4024 38.183C26.821 38.0713 27.231 37.9688 27.3232 37.9428C27.4573 37.9 27.6664 38.1142 28.3946 39.0062C28.8886 39.6152 29.3659 40.1554 29.4409 40.1982C29.5581 40.2583 29.8763 40.1125 30.864 39.538C31.5589 39.1264 32.153 38.7404 32.1784 38.6719C32.2035 38.6035 31.9944 37.9004 31.718 37.12L31.2076 35.6878L31.8939 34.9847L32.5802 34.2817L33.9866 34.7962C34.7651 35.0876 35.4433 35.2934 35.5019 35.2762C35.6946 35.1989 37.0923 32.6008 37.0169 32.4635C36.9837 32.395 36.4478 31.9061 35.8365 31.3744C34.991 30.6541 34.7315 30.3799 34.7733 30.277C34.807 30.1913 34.9156 29.7881 35.0161 29.3765C35.1247 28.9649 35.242 28.5877 35.2838 28.5533C35.3256 28.5188 35.9787 28.3819 36.7405 28.2446C37.5023 28.1161 38.1718 27.9703 38.2305 27.9275C38.3059 27.859 38.3309 27.4302 38.3309 26.3155C38.3309 25.2008 38.3059 24.772 38.2305 24.7036C38.1718 24.6607 37.5105 24.5062 36.7573 24.3776C36.0037 24.2403 35.351 24.1118 35.3092 24.0778C35.2424 24.0433 34.9828 23.1861 34.7651 22.2856C34.7483 22.2083 35.1501 21.814 35.8615 21.2138C36.481 20.6909 37.0082 20.2192 37.0333 20.1503C37.0919 20.0046 35.6606 17.4233 35.4929 17.3548C35.4261 17.3292 34.7479 17.5434 33.9779 17.8265L32.5884 18.3494L31.9021 17.6375L31.2072 16.9344L31.7176 15.511C31.9939 14.7223 32.203 14.0276 32.178 13.9591C32.1112 13.7789 29.5914 12.3211 29.4491 12.3812C29.3822 12.4068 28.9214 12.9473 28.411 13.5815C27.6742 14.5076 27.4565 14.7218 27.3228 14.6878C25.8161 14.2934 25.6488 14.2334 25.5984 14.0876C25.5647 13.9931 25.4311 13.3245 25.3138 12.5958C25.1884 11.8671 25.0543 11.2153 25.0043 11.1636C24.878 11.0103 21.9817 11.0103 21.8563 11.156ZM24.518 19.2079C25.2966 19.3364 26.2257 19.6707 26.9456 20.0827C27.791 20.5716 29.0383 21.8404 29.5155 22.7153C30.8295 25.1164 30.7545 27.9287 29.3146 30.2098C26.7447 34.2829 21.0527 34.6172 18.0224 30.8784C17.4865 30.2098 16.817 28.8548 16.5993 27.9888C16.4152 27.2601 16.3984 25.5704 16.5574 24.8161C17.1265 22.1752 19.1774 19.997 21.714 19.3452C22.6263 19.105 23.6222 19.0533 24.518 19.2079Z" fill="#FF6B00"/>
<path id="Vector_3" d="M23.1117 20.194C23.0531 20.2197 22.8104 20.4599 22.5676 20.7169C22.0986 21.223 21.0441 21.9774 20.3746 22.2861C20.1486 22.389 19.621 22.5607 19.2028 22.6632L18.4496 22.8606L18.1401 23.4952C17.6956 24.3873 17.4865 25.3046 17.4865 26.3164C17.4865 27.6369 17.7042 28.4685 18.3069 29.4634C18.6251 29.9952 19.1441 30.6466 19.2028 30.5869C19.2196 30.5697 19.3368 29.9779 19.4541 29.2749C19.5714 28.5634 19.6968 27.9372 19.7304 27.8687C19.7641 27.8086 20.1322 27.6713 20.5422 27.56C20.9609 27.4487 21.354 27.337 21.4295 27.303C21.5385 27.2601 21.8063 27.5344 22.5094 28.392C23.0285 29.0178 23.4971 29.5668 23.5639 29.6012C23.698 29.6785 26.2425 28.2463 26.3179 28.0493C26.3347 27.9976 26.1252 27.2946 25.8493 26.5058L25.347 25.0652L26.0252 24.3621L26.7033 23.659L27.7246 24.0362C28.2855 24.242 28.8464 24.4562 28.9718 24.5079L29.206 24.5935L29.0387 24.1647C28.7541 23.3844 28.3437 22.7754 27.5655 21.9782C26.912 21.3003 26.6943 21.1374 26.0166 20.8026C25.5811 20.5884 25.0539 20.3738 24.8362 20.3226C24.3507 20.2024 23.2622 20.1252 23.1117 20.194Z" fill="#FF6B00"/>
</g>
</g>
</g>
</svg>
