<svg width="37" height="37" viewBox="0 0 37 37" fill="none" xmlns="http://www.w3.org/2000/svg">
<g id="5ef67f0aec23a1a30379f27042718ead 1">
<g id="Group">
<path id="Vector" d="M1.3431 26.455V29.3003C1.3431 29.3003 1.2432 34.6727 6.2937 36.593V23.1731C6.2937 23.1953 2.7861 25.0342 1.3431 26.455ZM8.7616 22.4849V30.9505H17.0792C17.0792 30.9505 17.0792 24.4496 21.5932 22.4849C21.5932 22.4849 19.8172 22.0483 19.7136 21.9632C19.7136 21.9632 18.3335 23.4876 15.4068 23.532C15.4068 23.532 13.4421 23.6578 11.1 21.9632C11.1037 21.9595 9.0317 22.2555 8.7616 22.4849ZM9.0576 16.3799C9.0576 16.3799 10.3526 22.089 15.2033 22.1297C15.2033 22.1297 19.2141 22.5885 21.2195 16.3799C21.2195 16.3799 22.4516 16.5057 22.4516 14.3338C22.4516 14.3338 22.829 12.4542 20.6534 12.9722C20.6534 12.9722 19.5878 13.4754 14.8444 13.4939C14.8444 13.4939 11.8141 13.6012 9.768 13.0314C9.768 13.0314 8.0586 12.5504 7.7811 13.5938V15.0146C7.7811 15.0442 7.8625 16.3392 9.0576 16.3799ZM6.1531 10.0492C6.1531 10.0492 6.5083 12.1397 14.3042 12.3913C14.3042 12.3913 20.1539 12.5985 22.3924 11.2184L21.8078 5.34279C21.8078 5.34279 20.1983 2.0017 15.9803 1.2913V0.369995H14.1784L14.1599 1.3098C14.1599 1.3098 11.174 1.49849 8.8726 4.52879C8.8726 4.52879 7.5998 5.65729 7.2002 9.19079L6.1531 10.0492ZM23.8724 36.6115V29.0709C23.8724 29.0709 24.0389 28.6528 24.5236 28.6343H30.4732C30.4732 28.6343 30.8691 28.7194 30.9542 29.1375V36.6152H31.4352C31.4352 36.6152 36.3266 33.7921 35.5718 28.6343C35.5718 28.6343 34.9687 24.1203 29.9515 22.385L31.3797 5.80899C31.3797 5.80899 31.5277 1.96469 27.3467 1.71309C27.3467 1.71309 23.6911 1.61319 23.3359 5.80899L26.2404 5.32799L27.3874 4.22169L28.7675 5.62399L27.4059 7.00409L26.0258 5.62399L26.4217 5.22809L23.3914 5.66099L25.0009 22.1704C25.0009 22.1704 19.4213 24.1573 19.1512 29.8183C19.1512 29.8183 18.8552 33.6219 23.4358 36.6337L23.8724 36.6115Z" fill="#FF6B00"/>
</g>
</g>
</svg>
