<svg width="35" height="35" viewBox="0 0 35 35" fill="none" xmlns="http://www.w3.org/2000/svg">
<g id="d9f92b4de82497c9a3c6ef84f5503a32 1" clip-path="url(#clip0_23_129)">
<g id="Group">
<g id="Group_2">
<path id="Vector" d="M6.4778 0.449406C6.19185 0.570858 0.600251 6.10541 0.428751 6.44141C0.364351 6.54851 0.335651 6.71301 0.357351 6.79876C0.414401 7.01331 28.0791 34.6563 28.2363 34.6563C28.3077 34.6563 28.4508 34.6136 28.5579 34.5562C28.665 34.4992 30.0311 33.1692 31.5896 31.6033C34.3997 28.7861 34.65 28.4928 34.65 28.0637C34.65 27.5202 34.7788 27.649 20.95 13.8418C9.2379 2.15111 7.5502 0.492107 7.29295 0.420708C6.9139 0.31361 6.7851 0.313606 6.4778 0.449406ZM20.278 14.7427L33.4702 27.9349L30.9176 30.4875L28.3577 33.0474L27.664 32.354L26.9633 31.6533L27.7498 30.8669L28.5362 30.0804L28.1215 29.673L27.7137 29.2583L26.9273 30.0447L26.1408 30.8312L25.4471 30.1305L24.7464 29.4368L25.5329 28.6503L26.32 27.8635L25.8909 27.4344L25.4618 27.0053L24.6754 27.7918L23.8889 28.5782L23.1882 27.8775L22.4945 27.1845L23.281 26.3981L24.0674 25.6116L23.66 25.2039L23.2453 24.7891L22.4588 25.5756L21.672 26.362L20.9713 25.6613L20.2776 24.9676L21.0641 24.1812L21.8505 23.3947L21.4428 22.987L21.028 22.5722L20.2419 23.359L19.4555 24.1455L18.7548 23.4448L18.0611 22.7511L18.8475 21.9646L19.634 21.1782L19.2262 20.7708L18.8115 20.356L18.025 21.1425L17.2386 21.9289L16.5235 21.2139L15.8085 20.4988L16.5949 19.7124L17.3814 18.9259L16.9666 18.5182L16.5596 18.1034L15.7731 18.8899L14.9867 19.6763L14.293 18.9756L13.5923 18.2819L14.3787 17.4955L15.1655 16.709L14.7508 16.3013L14.343 15.8869L13.5566 16.6733L12.7701 17.4598L12.0764 16.7591L11.3757 16.0654L12.1622 15.2789L12.9486 14.4925L12.5339 14.0847L12.1261 13.67L11.34 14.4568L10.5536 15.2432L9.85985 14.5425L9.15915 13.8488L9.9456 13.0624L10.7321 12.2759L10.303 11.8468L9.87385 11.4177L9.08775 12.2045L8.3013 12.991L7.6006 12.2903L6.9069 11.5966L7.69335 10.8101L8.4798 10.0237L8.07205 9.61591L7.6573 9.20116L6.87085 9.98761L6.0844 10.7741L4.011 8.70066L1.93725 6.62691L4.47545 4.08871C5.86985 2.69431 7.028 1.55051 7.0497 1.55051C7.07105 1.55051 13.0204 7.48511 20.278 14.7427Z" fill="#FF6B00"/>
<path id="Vector_2" d="M6.65665 3.48111C6.3133 3.65261 6.1418 3.87451 6.06305 4.24621C5.9486 4.77541 6.16315 5.26156 6.62795 5.50481C6.9426 5.67631 7.5502 5.64061 7.82215 5.43341C8.5085 4.91856 8.4301 3.85316 7.665 3.48846C7.2856 3.30226 7.021 3.30226 6.65665 3.48111Z" fill="#FF6B00"/>
<path id="Vector_3" d="M28.4648 0.470734C28.3073 0.542133 27.8285 0.964234 27.3924 1.40033L26.606 2.19413L29.7021 5.28323L32.7908 8.37933L33.613 7.55718C34.5783 6.59188 34.7284 6.32028 34.5853 5.77673C34.5065 5.47643 34.285 5.22618 32.1255 3.06668C30.8172 1.75803 29.6657 0.621233 29.5586 0.542483C29.273 0.334933 28.8082 0.299233 28.4648 0.470734Z" fill="#FF6B00"/>
<path id="Vector_4" d="M21.9366 6.86315L18.5616 10.2382L21.6577 13.3343L24.7468 16.4234L28.1432 13.027L31.5396 9.6306L28.4648 6.55585C26.7775 4.8685 25.3757 3.4811 25.3544 3.4811C25.333 3.4811 23.7958 5.00395 21.9366 6.86315Z" fill="#FF6B00"/>
<path id="Vector_5" d="M6.69235 22.1078L2.93825 25.8615L6.03435 28.9503L9.12345 32.0464L12.8915 28.2783L16.667 24.5028L13.5922 21.4281C11.9049 19.7407 10.5031 18.3533 10.4818 18.3533C10.4604 18.3533 8.75875 20.0414 6.69235 22.1078Z" fill="#FF6B00"/>
<path id="Vector_6" d="M2.3807 26.5552C2.35935 26.5839 1.8872 28.3143 1.32965 30.4021C0.249901 34.4418 0.256901 34.4204 0.635951 34.5919C0.764751 34.6493 1.50815 34.4775 4.5829 33.6483C6.67065 33.0978 8.39405 32.6186 8.42975 32.5899C8.45845 32.5612 7.2212 31.2673 5.677 29.7227C2.5879 26.6266 2.43075 26.4765 2.3807 26.5552Z" fill="#FF6B00"/>
</g>
</g>
</g>
<defs>
<clipPath id="clip0_23_129">
<rect width="35" height="35" fill="white"/>
</clipPath>
</defs>
</svg>
