<svg width="57" height="57" viewBox="0 0 57 57" fill="none" xmlns="http://www.w3.org/2000/svg">
<g id="df8ddb0b5df29bc4350fd9f4c701c09b 1">
<g id="Group">
<g id="Group_2">
<path id="Vector" d="M35.7852 2.96795C34.9564 3.27347 34.3129 4.01504 34.1384 4.89854C34.0837 5.12768 33.9857 5.19323 33.5057 5.31293C32.5681 5.52041 31.4121 6.16394 30.605 6.90552L29.8634 7.59237L28.8927 7.11243C28.3472 6.8508 27.5401 6.54527 27.0932 6.4364C26.4605 6.28364 26.2645 6.18561 26.2428 6.02201C26.2211 5.91315 26.0792 5.5643 25.9373 5.26962C25.4465 4.27724 24.5961 3.90617 22.8507 3.90617C21.8259 3.90617 21.0404 4.10226 20.5388 4.47332C20.1677 4.76744 19.7317 5.47652 19.6337 5.98895C19.5789 6.22892 19.4917 6.28365 18.9468 6.38168C17.4962 6.65414 16.1441 7.37405 15.0206 8.48669C13.3192 10.1551 12.0869 12.8711 11.8577 15.4555C11.7922 16.2187 11.7813 16.2626 11.4542 16.3937C10.2002 16.9278 9.46942 18.6293 9.55663 20.8215L9.58912 21.6286L11.0067 21.9011L12.4135 22.1844L12.5332 22.6643C12.6529 23.1226 12.6312 23.1984 12.3371 23.7439C11.4866 25.2493 12.0755 28.2264 13.4497 29.4479C13.9297 29.8731 14.0169 30.015 14.2785 30.8985C14.6604 32.1634 15.3364 33.5485 16.0124 34.4428L16.5471 35.1405L16.4707 37.0055C16.3943 38.6847 16.3619 38.903 16.1327 39.3066C15.5872 40.2334 14.2135 41.0297 10.5707 42.5128C6.72088 44.0832 5.11747 44.9992 3.54712 46.5479C1.76986 48.2818 0.951907 50.2449 0.646387 53.4403L0.570007 54.1819H23.0035C44.3135 54.1819 45.4262 54.1711 45.3714 53.9858C45.3498 53.8878 45.2951 53.4078 45.2517 52.9279C45.1429 51.5103 44.859 50.4524 44.1391 48.7509C44.0958 48.6529 45.3606 48.6198 50.2575 48.6198C54.4561 48.6198 56.43 48.5873 56.43 48.511C56.43 48.4454 56.3753 47.9221 56.3211 47.3333C56.092 45.2614 55.5579 43.8324 54.4778 42.4804C53.1582 40.8228 51.5223 39.721 48.1958 38.2601C44.9895 36.8425 43.6261 35.9806 43.2773 35.1302C43.1684 34.8902 43.1245 34.3014 43.1245 33.3415V31.9131L43.4956 31.4007C43.6916 31.1282 44.008 30.6044 44.1932 30.2447C44.5096 29.5904 45.0876 27.9984 45.0876 27.7476C45.0876 27.6712 45.2295 27.5076 45.4039 27.3771C46.1347 26.8424 46.6038 25.8939 46.8323 24.498C46.952 23.6909 46.8432 22.8513 46.5268 22.2516C46.3416 21.8914 46.3416 21.8481 46.5701 20.9321C46.7993 20.0161 46.8209 19.9944 47.1698 19.918C47.3773 19.8742 48.0533 19.7328 48.6638 19.6017L49.7981 19.3509L49.7217 18.2605C49.5797 16.0141 49.1112 15.0651 47.8675 14.4324C47.7147 14.356 47.6383 14.1924 47.6167 13.8869C47.5186 12.5126 46.9731 10.6584 46.2863 9.39356C45.1195 7.2344 43.6472 5.96901 41.5969 5.36937C40.8114 5.14022 40.7789 5.11856 40.7026 4.73667C40.539 3.94038 39.7757 3.14465 38.9795 2.92634C38.4134 2.76104 36.2759 2.79353 35.7852 2.96795ZM38.5445 9.1952C38.5993 12.8814 38.6209 13.2525 38.7953 13.5249C39.1225 14.0049 39.8972 14.1246 40.3115 13.7541C40.7915 13.3397 40.8348 13.0017 40.8348 10.1767C40.8348 8.11562 40.8673 7.50459 40.9767 7.50459C41.0423 7.50459 41.4242 7.65734 41.8055 7.83176C42.8743 8.33336 43.7578 9.30407 44.423 10.6892C45.0443 11.9871 45.2951 12.9031 45.4262 14.4079C45.5464 15.8254 45.7533 16.1093 46.9748 16.4906C47.1823 16.5562 47.3784 16.9814 47.3784 17.3633C47.3784 17.6033 47.302 17.6358 45.8844 17.8541C43.7469 18.1813 42.5471 18.2901 39.6355 18.4104C35.7641 18.5632 36.1893 18.6173 35.8838 17.9413C35.5891 17.2761 34.9678 16.6217 34.4445 16.4251C34.0957 16.3054 34.0843 16.2723 34.0193 15.5855C33.8341 13.6988 32.9175 11.1138 31.9474 9.79427C31.7405 9.51041 31.5655 9.22712 31.5655 9.16158C31.5655 8.82357 33.4413 7.50401 33.9321 7.50401C34.0301 7.50401 34.074 8.23475 34.0957 10.3939L34.1282 13.2838L34.4662 13.6218C34.9461 14.0909 35.4916 14.0909 35.971 13.6218L36.309 13.2838L36.3415 9.18324L36.374 5.09348L37.4319 5.12654L38.4898 5.15903L38.5445 9.1952ZM24.0398 10.362L24.0945 14.4842L24.3783 14.7675C24.9671 15.3563 25.9595 15.073 26.2103 14.2551C26.2867 14.0151 26.33 12.8158 26.33 11.2124V8.5625L26.7119 8.62805C27.4535 8.74775 28.5114 9.35879 29.2638 10.1112C30.7908 11.6052 31.6196 13.6338 31.8374 16.404C31.9246 17.4619 32.1537 17.9088 32.7317 18.1488C33.7571 18.5848 33.8552 18.6943 33.9965 19.4575L34.0621 19.8063L32.6228 20.0246C29.5038 20.5262 27.6171 20.6351 22.8946 20.6351C18.2161 20.6351 16.4821 20.5262 13.3084 20.0463C12.5343 19.926 11.8799 19.828 11.8685 19.828C11.7705 19.828 11.8361 19.3589 11.9996 18.9661C12.1193 18.6606 12.2721 18.497 12.5121 18.4098C13.7444 17.9407 13.9405 17.6466 14.0499 16.0757C14.2244 13.611 15.097 11.5607 16.6018 10.0667C17.2562 9.41237 18.4452 8.74718 19.1537 8.63774L19.5573 8.57219L19.5898 11.5276L19.6223 14.4831L19.9055 14.7664C20.4944 15.3552 21.4867 15.0719 21.7375 14.254C21.8139 14.0032 21.8572 12.5092 21.8572 10.0987C21.8572 8.0267 21.8897 6.30359 21.9336 6.2597C21.9775 6.21638 22.4569 6.20498 23.0024 6.21638L23.9839 6.24887L24.0398 10.362ZM44.4007 20.5046C44.3791 20.581 44.2155 21.0609 44.0519 21.5733L43.7464 22.5001L44.2155 22.9693L44.6846 23.4275L44.6082 24.1036C44.5102 25.0743 44.2594 25.5103 43.703 25.7178C43.4522 25.805 43.2231 25.9139 43.1906 25.9361C43.169 25.9686 43.0379 26.4816 42.9182 27.0812C42.624 28.5097 41.9041 30.015 41.2606 30.5275L40.8023 30.8871L40.8787 33.2321C40.9551 35.5663 40.9551 35.5879 41.2823 36.1876C42.0785 37.6924 43.3217 38.5542 47.1168 40.2226C49.1671 41.1386 49.8106 41.4658 50.8469 42.164C51.7959 42.7859 52.7666 43.7674 53.2243 44.5415C53.4643 44.945 53.9226 46.1341 53.9226 46.3518C53.9226 46.3951 51.3268 46.439 48.1536 46.439H42.3835L41.7947 45.9699C40.1804 44.6612 38.6648 43.8432 35.2186 42.4581C31.7068 41.0405 30.4312 40.2876 29.7768 39.2952C29.4929 38.8808 29.4929 38.8369 29.4929 36.9286V34.9871L29.8965 34.4747C30.4312 33.7765 31.2708 31.977 31.598 30.8649C31.8271 30.0578 31.9143 29.905 32.4159 29.4473C32.7761 29.1093 33.0811 28.6949 33.2994 28.2258C33.6266 27.5059 33.9646 26.1316 33.9646 25.4773C33.9646 24.954 33.6699 23.8852 33.4299 23.5467C33.2447 23.285 33.2333 23.2087 33.3536 22.7179L33.4955 22.1832L34.9022 21.8999L36.309 21.6275L36.3415 21.18L36.374 20.7331L39.1767 20.6568C40.7145 20.602 42.2957 20.5371 42.6884 20.4932C43.8883 20.3518 44.4663 20.3518 44.4007 20.5046ZM17.9322 22.784C20.9965 22.9915 26.8641 22.9151 30.2339 22.5988C31.1283 22.5115 31.1283 22.5115 30.8444 23.362L30.6592 23.8858L31.1824 24.3982L31.7057 24.8998L31.6407 25.7503C31.5968 26.3938 31.5096 26.7643 31.2696 27.2226C30.9755 27.8114 30.9316 27.8445 30.43 27.9533L29.8845 28.0622L29.6993 29.0985C29.3504 30.996 28.6636 32.5447 27.7579 33.439L27.1691 34.0278L27.2238 36.6669C27.2785 39.2296 27.2893 39.3283 27.5618 39.9279C27.889 40.6586 28.74 41.5855 29.656 42.2398C30.572 42.8942 31.7063 43.4397 34.4873 44.5734C38.3587 46.1551 39.4822 46.7873 40.889 48.2271C41.838 49.187 42.3065 49.9719 42.6776 51.1717C42.8081 51.5753 42.9068 51.9349 42.9068 51.9566C42.9068 51.9783 33.9532 52.0005 23.0035 52.0005C5.99014 52.0005 3.10024 51.9788 3.10024 51.8477C3.10024 51.5314 3.64573 50.103 3.99457 49.5142C4.19065 49.1761 4.69282 48.5543 5.11804 48.1399C6.43759 46.8203 7.86658 46.0132 11.5528 44.5301C15.9041 42.7631 17.344 41.8146 18.26 40.0915L18.631 39.4046L18.6749 36.6669L18.7296 33.9406L18.2714 33.5809C17.4534 32.9266 16.4719 30.9202 16.1886 29.3059C15.9594 27.9425 16.0033 28.0411 15.4795 27.9539C14.9123 27.8775 14.6507 27.5942 14.3999 26.8304C13.9964 25.5325 14.0836 24.8565 14.7379 24.311C15.1523 23.9622 15.1523 23.973 14.9232 22.8934L14.8468 22.5229L15.5992 22.5993C16.013 22.6312 17.0595 22.7185 17.9322 22.784Z" fill="#FF6B00"/>
</g>
</g>
</g>
</svg>
