<svg width="62" height="49" viewBox="0 0 62 49" fill="none" xmlns="http://www.w3.org/2000/svg">
<g id="Frame 1">
<g id="Group">
<g id="Group_2">
<path id="Vector" d="M22.5718 1.69016L22.5962 1.70107C23.7287 2.2058 24.4309 3.1303 24.8545 4.28578L25.0464 4.79744L25.1408 5.04931L25.1419 5.31831L25.1659 11.491L25.1659 11.4911L25.1904 17.6752L25.1963 19.1812H23.6904H14.6345H5.57896H4.07312L4.07897 17.6753L4.103 11.4911V11.4911L4.10333 11.4077C4.11508 8.41912 4.12117 6.86849 4.14694 6.01322C4.15977 5.58744 4.17876 5.26767 4.21871 5.00457C4.26689 4.68731 4.34131 4.48273 4.40063 4.32542C4.40093 4.32462 4.40124 4.32382 4.40154 4.32303L5.80496 4.85255C6.07946 4.11695 6.37841 3.66875 6.83085 3.33515L22.5718 1.69016ZM22.5718 1.69016L22.5469 1.68014C22.4238 1.63047 22.321 1.6084 22.2885 1.60152C22.2418 1.59164 22.2026 1.58555 22.1783 1.58206C22.1292 1.57504 22.0853 1.57084 22.0566 1.56834C21.9963 1.56312 21.9302 1.55933 21.8679 1.55634C21.7396 1.5502 21.5695 1.54481 21.3689 1.53997C20.9648 1.53021 20.4009 1.52186 19.721 1.51535C18.3594 1.5023 16.5133 1.49644 14.5092 1.50216H14.5087L7.23811 1.52496L6.73913 1.52653L6.34052 1.82667L5.93381 2.13292L22.5718 1.69016Z" stroke="#FF6B00" stroke-width="3"/>
<path id="Vector_2" d="M60.1949 33.3486L60.0659 33.6393L59.7828 34.2766L59.7815 34.2797C59.2478 35.4741 58.3215 36.3951 57.1451 36.9719L57.1394 36.9746L57.1394 36.9746C56.7905 37.1439 56.4506 37.2897 56.023 37.3834C55.6727 37.4601 55.3072 37.4916 54.8979 37.5137C54.3036 41.7588 51.4125 45.1458 47.2924 46.3201L47.2842 46.3224L47.2842 46.3224C46.5958 46.5144 45.6439 46.5824 44.8126 46.5824C43.9813 46.5824 43.0294 46.5144 42.341 46.3224L42.3296 46.3192L42.3296 46.3192C40.4633 45.7829 39.0859 44.9685 37.7292 43.6031C36.0618 41.934 35.0724 39.9041 34.7346 37.5462H30.0164H25.2789C24.94 39.8887 24.023 41.7477 22.3933 43.4634L22.3896 43.4673C21.1919 44.719 19.9942 45.5227 18.5013 46.043C14.6735 47.381 10.6401 46.3502 7.87815 43.3566L7.87784 43.3562C6.33048 41.6781 5.42934 39.7902 5.11389 37.5174C4.77619 37.4882 4.42768 37.4368 4.17035 37.3635L4.1595 37.3604L4.14869 37.3571C3.51605 37.1666 2.97794 36.7307 2.61689 36.3534C2.25129 35.9713 1.84893 35.4209 1.67632 34.7948L1.67263 34.7814L1.6692 34.768C1.62105 34.5798 1.60527 34.3641 1.59814 34.2668L1.59771 34.2607C1.58702 34.115 1.57796 33.9363 1.57002 33.7364C1.55407 33.3345 1.5411 32.8053 1.53083 32.1974C1.51025 30.9792 1.50003 29.4141 1.50003 27.8528C1.50003 26.2914 1.51025 24.7263 1.53083 23.5081C1.5411 22.9002 1.55407 22.371 1.57002 21.9691C1.57796 21.7692 1.58702 21.5905 1.59771 21.4448L1.59814 21.4388C1.60527 21.3414 1.62105 21.1257 1.6692 20.9375L1.67263 20.9241L1.67632 20.9107C1.84893 20.2846 2.25129 19.7342 2.61689 19.3521C2.97794 18.9748 3.51605 18.5389 4.14869 18.3484L4.15241 18.3473C4.31795 18.2979 4.47865 18.2817 4.52934 18.2765L4.53446 18.276C4.61754 18.2676 4.71031 18.261 4.80548 18.2556C4.99787 18.2447 5.25284 18.2354 5.5667 18.2272C6.19726 18.2109 7.11036 18.198 8.33065 18.188C10.7736 18.1679 14.4783 18.1593 19.6832 18.1593H32.8578L32.8822 13.8703L32.8823 13.8701L32.9146 8.10089L32.9164 7.78722L33.0437 7.50055L33.3267 6.8632L33.3281 6.8601C33.8609 5.66747 34.7853 4.7474 35.9594 4.17047C35.9611 4.16962 35.9628 4.16879 35.9645 4.16795L36.6848 3.80849L36.9978 3.65235L37.3475 3.6507L42.1374 3.62813L42.1384 3.62812M60.1949 33.3486L42.1384 3.62812M60.1949 33.3486V33.0305V26.9422C60.1949 26.7097 60.195 26.4859 60.195 26.2704C60.1955 21.012 60.1955 20.6555 59.8876 19.4614C58.8781 15.4058 56.2711 10.9167 53.0304 7.5177C51.3515 5.75153 49.6352 4.42689 48.0378 3.88859M60.1949 33.3486L48.0378 3.88859M42.1384 3.62812C44.3226 3.61633 45.5693 3.61289 46.3374 3.63821C47.1365 3.66454 47.5563 3.72473 48.0378 3.88859M42.1384 3.62812L48.0378 3.88859M39.452 10.3277C39.4871 10.3249 39.5288 10.3218 39.5783 10.3188C40.1119 10.2863 41.1147 10.2747 43.1684 10.2573C45.252 10.2459 46.2528 10.2411 46.7894 10.2659C46.8852 10.2703 46.9526 10.2752 46.9982 10.2794C47.7037 10.7508 48.5924 11.6966 49.4472 12.9645C50.3113 14.2461 51.053 15.7267 51.4824 17.0933L51.483 17.0952C51.6496 17.623 51.8004 18.2712 51.8966 18.844C51.9446 19.1292 51.9757 19.3765 51.9901 19.5667C51.9978 19.6692 51.9988 19.7331 51.9989 19.7657C51.9861 19.7924 51.9652 19.8282 51.9361 19.8674C51.9234 19.8845 51.9105 19.9004 51.8979 19.9148C51.7959 19.9264 51.663 19.9381 51.5001 19.9487C51.0673 19.9769 50.5056 19.9928 49.9314 19.9942C49.3571 19.9955 48.7956 19.9823 48.3632 19.956C48.2216 19.9474 48.1029 19.9379 48.0075 19.9283C47.9973 19.9185 47.9868 19.9082 47.9759 19.8975C47.8301 19.7543 47.6562 19.568 47.4972 19.3783L47.4973 19.3783L47.4918 19.3718C46.5209 18.2267 45.6699 17.543 44.3586 16.8701C43.142 16.2347 42.0421 15.9029 40.3715 15.5802L40.3715 15.5801L40.3621 15.5784C40.0707 15.524 39.866 15.4797 39.7132 15.4387C39.5619 15.3981 39.4938 15.3691 39.4674 15.3561C39.4619 15.3533 39.4584 15.3514 39.4565 15.3503C39.4565 15.3503 39.4564 15.3503 39.4564 15.3502C39.4534 15.3475 39.4449 15.3392 39.4295 15.3212C39.4288 15.3123 39.4281 15.3028 39.4274 15.2927C39.4021 14.9326 39.3984 14.2618 39.3984 12.8315C39.3984 11.4012 39.4021 10.7304 39.4274 10.3703C39.4278 10.3642 39.4282 10.3583 39.4286 10.3527C39.4362 10.3445 39.444 10.3362 39.452 10.3277ZM43.1189 32.5066L43.1316 32.5002L43.1443 32.4936C43.3102 32.4069 43.6924 32.2604 43.9443 32.1872C44.6074 32.0077 45.5817 32.0807 46.3725 32.4294C46.6083 32.5388 46.9973 32.8219 47.4013 33.2442C47.8048 33.6659 48.0839 34.0808 48.1954 34.3457C48.8517 35.9436 48.5798 37.5256 47.4826 38.7566C46.0122 40.3981 43.65 40.4054 42.1851 38.8016L42.1825 38.7987C41.0406 37.5552 40.7708 35.8453 41.4742 34.2773C41.5529 34.1077 41.8262 33.7174 42.2415 33.2755C42.4342 33.0704 42.6286 32.8852 42.8012 32.7401C42.887 32.6679 42.961 32.6111 43.0211 32.569C43.0508 32.5482 43.0746 32.5328 43.0924 32.5218C43.1104 32.5109 43.119 32.5065 43.1189 32.5066ZM13.5031 32.5069L13.5157 32.5007L13.5291 32.4936C13.6947 32.4071 14.0772 32.2606 14.3296 32.187C14.9917 32.0078 15.9659 32.0806 16.7583 32.4296C16.994 32.5391 17.3829 32.8221 17.7868 33.2442C18.1886 33.6641 18.467 34.0774 18.5795 34.3424C19.0537 35.52 19.0268 36.7489 18.5042 37.8925L18.5032 37.8947C18.5036 37.8937 18.4891 37.9244 18.4468 37.9898C18.4066 38.052 18.3519 38.1292 18.2821 38.2196C18.142 38.4011 17.963 38.6072 17.7666 38.8118C17.5704 39.0163 17.3708 39.2047 17.1937 39.3541C17.1056 39.4285 17.0293 39.4879 16.9671 39.5324C16.9364 39.5544 16.9117 39.5709 16.893 39.5827C16.881 39.5902 16.873 39.5949 16.8688 39.5973C15.3815 40.3425 13.691 40.0296 12.5705 38.8022C11.4174 37.5385 11.1487 35.8029 11.8814 34.2194C11.9473 34.0863 12.2178 33.7108 12.6429 33.2652C12.8388 33.0599 13.0355 32.8733 13.2079 32.7279C13.2938 32.6556 13.3664 32.5994 13.4239 32.5588C13.4813 32.5182 13.5069 32.505 13.5031 32.5069Z" stroke="#FF6B00" stroke-width="3"/>
</g>
</g>
</g>
</svg>
