<svg width="49" height="49" viewBox="0 0 49 49" fill="none" xmlns="http://www.w3.org/2000/svg">
<g id="3a4470f8cad19fd56f34f04a14f6baa1 1" clip-path="url(#clip0_17_128)">
<g id="Group">
<path id="Vector" d="M42.5075 0.48999H6.4925C3.1801 0.48999 0.49 3.26829 0.49 6.68849V42.3164C0.49 45.7317 3.1801 48.51 6.4925 48.51H42.5075C45.8199 48.51 48.51 45.7317 48.51 42.3115V6.68849C48.51 3.26829 45.8199 0.48999 42.5075 0.48999ZM45.5112 42.3115C45.5112 44.0216 44.1637 45.4083 42.5075 45.4083H6.4925C4.8363 45.4083 3.4888 44.0167 3.4888 42.3115V6.68849C3.4888 4.97839 4.8363 3.59169 6.4925 3.59169H42.5075C44.1637 3.59169 45.5112 4.98329 45.5112 6.68849V42.3115ZM39.5087 11.3337H13.9944C13.1663 11.3337 12.495 12.0295 12.495 12.8821C12.495 13.7347 13.1663 14.4305 13.9944 14.4305H39.5038C40.3319 14.4305 41.0032 13.7396 41.0032 12.8821C41.0081 12.0295 40.3368 11.3337 39.5087 11.3337ZM39.5087 19.0806H13.9944C13.1663 19.0806 12.495 19.7715 12.495 20.629C12.495 21.4816 13.1663 22.1774 13.9944 22.1774H39.5038C40.3319 22.1774 41.0032 21.4816 41.0032 20.629C41.0081 19.7715 40.3368 19.0806 39.5087 19.0806ZM39.5087 26.8226H13.9944C13.1663 26.8226 12.495 27.5184 12.495 28.371C12.495 29.2236 13.1663 29.9194 13.9944 29.9194H39.5038C40.3319 29.9194 41.0032 29.2285 41.0032 28.371C41.0032 27.5135 40.3368 26.8226 39.5087 26.8226ZM39.5087 34.5695H13.9944C13.1663 34.5695 12.495 35.2604 12.495 36.1179C12.495 36.9705 13.1663 37.6663 13.9944 37.6663H39.5038C40.3319 37.6663 41.0032 36.9754 41.0032 36.1179C41.0081 35.2604 40.3368 34.5695 39.5087 34.5695ZM7.9919 14.4305H10.9956V11.3337H7.9919V14.4305ZM7.9919 22.1774H10.9956V19.0806H7.9919V22.1774ZM7.9919 29.9194H10.9956V26.8226H7.9919V29.9194ZM7.9919 37.6663H10.9956V34.5695H7.9919V37.6663Z" fill="#FF6B00"/>
</g>
</g>
<defs>
<clipPath id="clip0_17_128">
<rect width="49" height="49" fill="white"/>
</clipPath>
</defs>
</svg>
