<svg width="161" height="161" viewBox="0 0 161 161" fill="none" xmlns="http://www.w3.org/2000/svg">
<g id="4e800718d67165f73c2eff7dfb4d33b3 1">
<g id="Group">
<path id="Vector" d="M55.21 96.7383H78.2094C80.9708 96.7383 83.2094 94.4997 83.2094 91.7383V81.9808C83.2094 81.3057 83.7567 80.7585 84.4317 80.7585H94.0311C94.3873 80.7585 94.7252 80.9167 94.9533 81.1904L94.96 81.1985L102.058 89.7466L102.066 89.7571C102.245 89.9715 102.343 90.2417 102.343 90.5208V96.4368C102.343 96.6033 102.478 96.7383 102.644 96.7383C103.315 96.7383 103.859 97.2901 103.859 97.9606V103.559C103.859 104.229 103.315 104.773 102.644 104.773H101.331C100.57 104.773 99.9089 105.248 99.455 105.857C99.3008 106.065 99.1314 106.26 98.9477 106.441C98.9458 106.443 98.9434 106.444 98.9408 106.444C98.9381 106.444 98.9356 106.445 98.9338 106.446C97.9724 107.406 96.6454 108 95.1882 108C93.731 108 92.4039 107.406 91.4426 106.446C91.4408 106.445 91.4383 106.444 91.4357 106.444C91.4331 106.444 91.4305 106.443 91.4287 106.441C91.2462 106.258 91.076 106.061 90.9202 105.851C90.4689 105.244 89.8084 104.773 89.0518 104.773H68.6703C67.9099 104.773 67.2484 105.248 66.7945 105.857C66.6403 106.065 66.4709 106.26 66.2872 106.441C66.2853 106.443 66.2828 106.444 66.2802 106.444C66.2776 106.444 66.2751 106.445 66.2732 106.446C65.3119 107.406 63.9849 108 62.5277 108C61.0705 108 59.7434 107.406 58.7821 106.446C58.7803 106.445 58.7777 106.444 58.7751 106.444C58.7725 106.444 58.77 106.443 58.7682 106.441C58.5873 106.26 58.4185 106.064 58.2643 105.857C57.8127 105.249 57.1532 104.773 56.3961 104.773H55.21C54.5395 104.773 53.9877 104.229 53.9877 103.559V97.9606C53.9877 97.2856 54.535 96.7383 55.21 96.7383ZM-nan -nanL62.3403 76.3581H61.9328C61.7078 76.3581 61.5254 76.5405 61.5254 76.7655V77.173V82.9342C61.5254 83.3842 61.8902 83.7491 62.3403 83.7491H70.6928C71.1429 83.7491 71.5077 83.3842 71.5077 82.9342V77.173C71.5077 76.7229 71.1429 76.3581 70.6928 76.3581H62.3403L-nan -nanZM69.8779 80.0454C69.8779 78.9046 68.9531 77.9797 67.8122 77.9797H65.2209C64.08 77.9797 63.1551 78.9046 63.1551 80.0454C63.1551 81.1863 64.08 82.1112 65.2209 82.1112H67.8122C68.9531 82.1112 69.8779 81.1863 69.8779 80.0454ZM62.3403 84.7881C62.3403 84.7903 62.3384 84.7921 62.3362 84.7921H61.9328C61.7078 84.7921 61.5254 84.9745 61.5254 85.1996V85.607V91.3601C61.5254 91.8101 61.8902 92.175 62.3403 92.175H70.6928C71.1429 92.175 71.5077 91.8101 71.5077 91.3601V85.5989C71.5077 85.1488 71.1429 84.784 70.6928 84.784H62.3443C62.3421 84.784 62.3403 84.7858 62.3403 84.7881ZM69.8779 88.4835C69.8779 87.3404 68.9512 86.4137 67.8081 86.4137H65.2249C64.0818 86.4137 63.1551 87.3404 63.1551 88.4835C63.1551 89.6267 64.0818 90.5533 65.2249 90.5533H67.8081C68.9512 90.5533 69.8779 89.6267 69.8779 88.4835ZM-nan -nanL50.883 76.3581H50.4756C50.2505 76.3581 50.0681 76.5405 50.0681 76.7655V77.173V82.9342C50.0681 83.3842 50.4329 83.7491 50.883 83.7491H59.2274C59.6774 83.7491 60.0423 83.3842 60.0423 82.9342V77.173C60.0423 76.7229 59.6774 76.3581 59.2274 76.3581H50.883L-nan -nanZM58.4207 80.0454C58.4207 78.9046 57.4958 77.9797 56.3549 77.9797H53.7636C52.6227 77.9797 51.6979 78.9046 51.6979 80.0454C51.6979 81.1863 52.6227 82.1112 53.7636 82.1112H56.3549C57.4958 82.1112 58.4207 81.1863 58.4207 80.0454ZM50.883 84.7881C50.883 84.7903 50.8812 84.7921 50.8789 84.7921H50.4756C50.2505 84.7921 50.0681 84.9745 50.0681 85.1996V85.607V91.3601C50.0681 91.8101 50.4329 92.175 50.883 92.175H59.2274C59.6774 92.175 60.0423 91.8101 60.0423 91.3601V85.5989C60.0423 85.1488 59.6774 84.784 59.2274 84.784H50.8871C50.8848 84.784 50.883 84.7858 50.883 84.7881ZM58.4207 88.4835C58.4207 87.3404 57.494 86.4137 56.3509 86.4137H53.7677C52.6246 86.4137 51.6979 87.3404 51.6979 88.4835C51.6979 89.6267 52.6246 90.5533 53.7677 90.5533H56.3509C57.494 90.5533 58.4207 89.6267 58.4207 88.4835ZM-nan -nanL39.6539 76.3581H48.0065C48.4565 76.3581 48.8213 76.7229 48.8213 77.173V82.9342C48.8213 83.3842 48.4565 83.7491 48.0065 83.7491H39.6539C39.2039 83.7491 38.839 83.3842 38.839 82.9342V77.173V76.7655C38.839 76.5405 39.0214 76.3581 39.2465 76.3581H39.6539L-nan -nanZM47.1916 80.0454C47.1916 78.9046 46.2667 77.9797 45.1258 77.9797H42.5345C41.3936 77.9797 40.4688 78.9046 40.4688 80.0454C40.4688 81.1863 41.3936 82.1112 42.5345 82.1112H45.1258C46.2667 82.1112 47.1916 81.1863 47.1916 80.0454ZM39.6539 84.7881C39.6539 84.7903 39.6557 84.7921 39.658 84.7921H48.0065C48.4565 84.7921 48.8213 85.157 48.8213 85.607V91.3601C48.8213 91.8101 48.4565 92.175 48.0065 92.175H39.6539C39.2039 92.175 38.839 91.8101 38.839 91.3601V85.5989V85.1914C38.839 84.9664 39.0214 84.784 39.2465 84.784H39.6498C39.6521 84.784 39.6539 84.7858 39.6539 84.7881ZM47.1916 88.4835C47.1916 87.3404 46.2649 86.4137 45.1218 86.4137H42.5386C41.3955 86.4137 40.4688 87.3404 40.4688 88.4835C40.4688 89.6267 41.3955 90.5533 42.5386 90.5533H45.1218C46.2649 90.5533 47.1916 89.6267 47.1916 88.4835ZM39.6539 93.0632H48.0065C48.4565 93.0632 48.8213 93.428 48.8213 93.8781V99.6393C48.8213 100.089 48.4565 100.454 48.0065 100.454H39.6539C39.2039 100.454 38.839 100.089 38.839 99.6393V93.8781C38.839 93.428 39.2039 93.0632 39.6539 93.0632ZM47.1916 96.7587C47.1916 95.6178 46.2667 94.693 45.1258 94.693H42.5345C41.3936 94.693 40.4688 95.6178 40.4688 96.7587C40.4688 97.8996 41.3936 98.8244 42.5345 98.8244H45.1259C46.2667 98.8244 47.1916 97.8996 47.1916 96.7587ZM80.5571 75.5188C81.1981 75.8831 82.0131 75.6583 82.3764 75.0168L82.9175 74.0616C83.5785 72.8949 83.1691 71.4132 82.003 70.7512L54.3865 55.0737C54.3148 55.033 54.2236 55.0581 54.1828 55.1299C54.1255 55.2307 53.9802 55.2307 53.923 55.1299C53.8822 55.0581 53.791 55.033 53.7193 55.0738L26.1107 70.751C24.9446 71.4132 24.5354 72.8948 25.1964 74.0615L25.3276 74.2931C25.9172 75.3341 27.2397 75.699 28.2798 75.1078C29.7224 74.2877 31.5132 75.3296 31.5132 76.989V103.587C31.5132 104.485 32.2411 105.213 33.1389 105.213C34.0368 105.213 34.7646 104.485 34.7646 103.587V74.3307C34.7646 72.5315 35.7312 70.871 37.2958 69.9827L51.5844 61.8695C53.1153 61.0002 54.9905 61.0001 56.5215 61.8692L72.7815 71.0992C74.3463 71.9874 75.3132 73.6481 75.3132 75.4474V88.5121C75.3132 89.4099 76.041 90.1378 76.9389 90.1378C77.8367 90.1378 78.5646 89.4099 78.5646 88.5121V76.6781C78.5646 75.6555 79.6681 75.0134 80.5571 75.5188ZM100.444 101.89C100.482 102.14 100.689 102.337 100.942 102.337C101.207 102.337 101.422 102.122 101.422 101.857V99.8806C101.422 99.4953 101.11 99.183 100.724 99.183C100.122 99.183 99.766 99.9338 100.02 100.481C100.223 100.92 100.368 101.393 100.444 101.89ZM90.0594 101.281C90.3066 100.367 89.71 99.1748 88.7632 99.1748H68.9711C68.0202 99.1748 67.4165 100.373 67.6664 101.29C67.819 101.85 68.2914 102.328 68.8717 102.328H88.8508C89.4344 102.328 89.9071 101.844 90.0594 101.281ZM96.6468 101.228C96.272 100.853 95.7586 100.625 95.18 100.625C94.6096 100.625 94.0881 100.853 93.7133 101.228C93.3466 101.595 93.1102 102.117 93.1102 102.687C93.1102 103.257 93.3384 103.779 93.7133 104.154C94.0881 104.529 94.6015 104.757 95.18 104.757C95.7505 104.757 96.272 104.529 96.6468 104.154C97.0135 103.787 97.2499 103.266 97.2499 102.687C97.2499 102.117 97.0217 101.595 96.6468 101.228ZM57.739 100.386C57.9867 99.8745 57.6531 99.1748 57.0851 99.1748C56.7201 99.1748 56.4242 99.4707 56.4242 99.8357V101.916C56.4242 102.144 56.609 102.328 56.837 102.328C57.0541 102.328 57.2324 102.16 57.2629 101.945C57.341 101.393 57.5047 100.869 57.739 100.386ZM63.9945 101.228C63.6196 100.853 63.1062 100.625 62.5277 100.625C61.9573 100.625 61.4357 100.853 61.069 101.228C60.6942 101.595 60.466 102.117 60.466 102.687C60.466 103.257 60.6942 103.779 61.069 104.154C61.4357 104.529 61.9573 104.757 62.5277 104.757C63.0981 104.757 63.6196 104.529 63.9945 104.154C64.3612 103.787 64.5975 103.266 64.5975 102.687C64.5975 102.117 64.3612 101.595 63.9945 101.228ZM99.9064 93.2914H88.2698C87.8198 93.2914 87.455 92.9265 87.455 92.4765V85.7048C87.455 85.2547 87.8198 84.8899 88.2698 84.8899H93.0551C93.7732 84.8899 94.1659 84.0526 93.7066 83.5005C93.5456 83.3069 93.3069 83.195 93.0551 83.195H90.6378C87.8763 83.195 85.6378 85.4335 85.6378 88.195V91.7383C85.6378 94.4997 87.8763 96.7383 90.6378 96.7383H98.1747C99.1266 96.7383 99.8982 95.9667 99.8982 95.0148V93.2995C99.8982 93.295 99.9019 93.2914 99.9064 93.2914ZM97.67 88.2653C96.7483 87.1543 95.3797 86.5115 93.9362 86.5115H91.6598C90.2376 86.5115 89.0847 87.6644 89.0847 89.0866C89.0847 90.5087 90.2376 91.6616 91.6598 91.6616H99.3914C99.6758 91.6616 99.9064 91.431 99.9064 91.1466C99.9064 91.0265 99.8644 90.9102 99.7877 90.8178L97.67 88.2653Z" fill="#FF6B00"/>
</g>
</g>
</svg>
