<svg width="83" height="83" viewBox="0 0 83 83" fill="none" xmlns="http://www.w3.org/2000/svg">
<g id="9d2150325fc2ece9b21f6a937006a4ba 1">
<g id="Group">
<path id="Vector" d="M20.9824 63.6278C20.9824 63.6278 23.4724 65.0554 21.0737 66.9063C19.2809 66.8897 9.33749 66.9229 9.33749 66.9229C9.33749 66.9229 1.64339 66.1676 0.871487 56.938C0.871487 51.0035 0.829987 26.1533 0.829987 26.1533C0.829987 26.1533 1.36119 17.3553 9.17149 16.0771L35.6402 16.1186C35.6402 16.1186 43.326 16.9818 43.9319 26.6513C43.9319 29.9132 43.9734 52.8544 43.9734 52.8544C43.9734 52.8544 42.6703 60.8639 32.5775 66.9063C32.5941 66.8897 29.6393 66.9229 29.6393 66.9229C29.6393 66.9229 28.4939 66.566 28.4524 64.9973C28.4109 63.4369 28.4939 58.2909 28.4939 58.2909C28.4939 58.2909 28.9836 52.5639 34.6691 51.5098C38.678 51.5098 40.9273 51.5098 40.9273 51.5098L40.9688 26.1948C40.9688 26.1948 40.421 19.9366 35.4327 19.3971C30.7266 19.3556 9.62799 19.3971 9.62799 19.3971C9.62799 19.3971 4.43219 19.5465 3.99229 26.5019C3.97569 31.7558 3.93419 56.4898 3.93419 56.4898C3.93419 56.4898 4.23299 63.0053 9.61969 63.6278C14.7491 63.661 20.9824 63.6278 20.9824 63.6278ZM39.8981 54.8464H34.4948C34.4948 54.8464 31.8222 55.6017 31.4985 58.6893C31.4985 58.6727 31.54 63.5863 31.54 63.5863L32.1791 63.661C32.1791 63.661 36.2627 60.8556 39.8981 54.8464Z" fill="#FF6B00"/>
<path id="Vector_2" d="M33.3494 29.6725C33.3494 30.7764 32.4613 31.6645 31.3574 31.6645H14.2345C13.1306 31.6645 12.2425 30.7764 12.2425 29.6725C12.2425 28.5686 13.1306 27.6805 14.2345 27.6805H31.3574C32.453 27.6805 33.3494 28.5686 33.3494 29.6725Z" fill="#FF6B00"/>
<path id="Vector_3" d="M33.3743 41.2012C33.3743 42.3051 32.4862 43.1932 31.3823 43.1932H14.2594C13.1555 43.1932 12.2674 42.3051 12.2674 41.2012C12.2674 40.0973 13.1555 39.2092 14.2594 39.2092H31.3823C32.4779 39.2092 33.3743 40.0973 33.3743 41.2012Z" fill="#FF6B00"/>
<path id="Vector_4" d="M23.4807 52.7881C23.4807 53.9335 22.5511 54.8631 21.4057 54.8631H14.3673C13.2219 54.8631 12.2923 53.9335 12.2923 52.7881C12.2923 51.6427 13.2219 50.7131 14.3673 50.7131H21.4057C22.5511 50.7048 23.4807 51.6344 23.4807 52.7881Z" fill="#FF6B00"/>
</g>
</g>
</svg>
