<svg width="27" height="27" viewBox="0 0 27 27" fill="none" xmlns="http://www.w3.org/2000/svg">
<g id="8b69f428573c3c97bc4857a50eaaba1d 1">
<g clip-path="url(#clip0_7_45)">
<g id="Group">
<g id="Group_2">
<path id="Vector" d="M25.5051 12.3387C25.5037 12.3373 25.5037 12.3373 25.5051 12.3387L18.9219 5.75551C18.316 5.14959 17.3326 5.14959 16.7266 5.75551C16.1207 6.36143 16.1207 7.34488 16.7266 7.9508L20.6604 11.8846L2.46267 11.8832C1.60552 11.8832 0.910924 12.5778 0.910924 13.435C0.912268 13.8636 1.08558 14.2518 1.36637 14.5326C1.64716 14.8134 2.03544 14.9867 2.46267 14.9867L20.6618 14.9867L16.728 18.9205C16.1221 19.5264 16.1221 20.5099 16.728 21.1158C17.3339 21.7217 18.3173 21.7217 18.9233 21.1158L26.6027 13.4363L25.5051 12.3387Z" fill="white"/>
</g>
</g>
</g>
</g>
<defs>
<clipPath id="clip0_7_45">
<rect x="13.4351" width="19" height="19" rx="3" transform="rotate(45 13.4351 0)" fill="white"/>
</clipPath>
</defs>
</svg>
