<svg width="48" height="48" viewBox="0 0 48 48" fill="none" xmlns="http://www.w3.org/2000/svg">
<g id="6c6d75ca5e46f6e8467c447e7b122964 1">
<g id="Group">
<path id="Vector" d="M25.8096 9.52324V29.424C25.8096 31.3824 26.1936 33.2544 26.9568 35.0352C27.72 36.816 28.752 38.3568 30.0528 39.6576C31.3536 40.9584 32.8944 41.9904 34.6752 42.7536C36.456 43.5168 38.328 43.9008 40.2864 43.9008H42.096C42.5856 43.9008 43.008 43.7232 43.368 43.3632C43.728 43.0032 43.9056 42.5808 43.9056 42.0912V38.472C43.9056 37.9824 43.728 37.56 43.368 37.2C43.008 36.84 42.5856 36.6624 42.096 36.6624H40.2864C38.2896 36.6624 36.5856 35.9568 35.1696 34.5408C33.7536 33.1296 33.048 31.4208 33.048 29.424V28.5216C33.048 27.768 33.312 27.1296 33.84 26.6016C34.368 26.0736 35.0064 25.8096 35.76 25.8096H42.0912C43.5984 25.8096 44.88 25.2816 45.936 24.2256C46.992 23.1696 47.52 21.888 47.52 20.3808V9.52804C47.52 8.02084 46.992 6.73924 45.936 5.68324C44.88 4.62724 43.5984 4.09924 42.0912 4.09924H31.2384C29.7312 4.09924 28.4496 4.62724 27.3936 5.68324C26.3376 6.73924 25.8096 8.02084 25.8096 9.52324ZM0.480019 9.52324V29.424C0.480019 31.3824 0.864021 33.2544 1.62722 35.0352C2.39042 36.816 3.42242 38.3568 4.72322 39.6576C6.02402 40.9584 7.56482 41.9904 9.34562 42.7536C11.1264 43.5168 12.9984 43.9008 14.9568 43.9008H16.7664C17.256 43.9008 17.6784 43.7232 18.0384 43.3632C18.3984 43.0032 18.576 42.5808 18.576 42.0912V38.472C18.576 37.9824 18.3984 37.56 18.0384 37.2C17.6784 36.84 17.256 36.6624 16.7664 36.6624H14.9568C12.96 36.6624 11.256 35.9568 9.84002 34.5408C8.42402 33.1296 7.71842 31.4208 7.71842 29.424V28.5216C7.71842 27.768 7.98242 27.1296 8.51042 26.6016C9.03842 26.0736 9.67682 25.8096 10.4304 25.8096H16.7664C18.2736 25.8096 19.5552 25.2816 20.6112 24.2256C21.6672 23.1696 22.1952 21.888 22.1952 20.3808V9.52804C22.1952 8.02084 21.6672 6.73924 20.6112 5.68324C19.5552 4.62724 18.2736 4.09924 16.7664 4.09924H5.91362C4.40642 4.09924 3.12482 4.62724 2.06882 5.68324C1.00802 6.73924 0.480019 8.02084 0.480019 9.52324Z" fill="#FF6B00"/>
</g>
</g>
</svg>
