<svg width="7" height="6" viewBox="0 0 7 6" fill="none" xmlns="http://www.w3.org/2000/svg">
<path d="M6.58701 0.256104C6.68501 0.256104 6.76691 0.293704 6.83201 0.368104C6.89711 0.442503 6.93001 0.536103 6.93001 0.648103C6.93001 0.758503 6.89711 0.851304 6.83061 0.926503L2.71461 5.6305C2.64881 5.7057 2.56691 5.7441 2.47101 5.7441C2.37511 5.7441 2.29321 5.7065 2.22741 5.6305L0.169407 3.2785C0.102907 3.2033 0.0700073 3.1105 0.0700073 3.0001C0.0700073 2.8881 0.102907 2.7945 0.168007 2.7201C0.233107 2.6457 0.315007 2.6081 0.413007 2.6081C0.509607 2.6081 0.590807 2.6457 0.656607 2.7217L2.47101 4.7977L6.34341 0.369703C6.40921 0.293703 6.49041 0.256104 6.58701 0.256104Z" fill="black" stroke="black" stroke-width="0.5"/>
</svg>
