<svg width="10" height="10" viewBox="0 0 10 10" fill="none" xmlns="http://www.w3.org/2000/svg">
<g id="640fdc35a259b255ed8abd13f30adbcd 1">
<g id="Group">
<path id="Vector" d="M9.685 3.43591C9.972 3.14891 9.972 2.68291 9.685 2.39591C9.398 2.10891 8.932 2.10891 8.645 2.39591L5.449 5.59091C5.32 5.69091 5.162 5.74691 4.997 5.74691C4.832 5.74691 4.673 5.69091 4.545 5.59091L1.356 2.40191C1.069 2.11491 0.603 2.11491 0.316 2.40191C0.029 2.68891 0.029 3.15491 0.316 3.44191L4.477 7.60291C4.615 7.74091 4.802 7.81791 4.997 7.81791C5.192 7.81791 5.379 7.74091 5.517 7.60291L9.685 3.43591Z" fill="black"/>
</g>
</g>
</svg>
