<svg width="42" height="42" viewBox="0 0 42 42" fill="none" xmlns="http://www.w3.org/2000/svg">
<g id="a8430b206d9e7446f0d652f93d2974be 1">
<g id="Group">
<path id="Vector" d="M8.03041 22.1759H11.7516V23.4569H8.03041V22.1759ZM21.4368 21.0083C21.7896 21.0083 22.1214 21.0881 22.4196 21.2351C23.5662 19.8449 24.8472 18.5975 26.292 17.5223C26.6448 17.8583 26.9976 18.1943 27.3546 18.5303C26.2668 20.1809 25.0152 21.5879 23.6376 22.8059C23.667 22.9529 23.6838 23.0999 23.6838 23.2553C23.6838 24.4943 22.68 25.4981 21.441 25.4981C20.202 25.4981 19.1982 24.4943 19.1982 23.2553C19.1982 22.7807 19.3452 22.3397 19.5972 21.9785C17.9382 19.7441 16.5228 17.3375 15.3678 14.7545C15.7416 14.5487 16.1196 14.3429 16.4934 14.1371C18.1524 16.3673 19.6014 18.6857 20.7942 21.1091C20.9916 21.0419 21.21 21.0083 21.4368 21.0083ZM18.228 8.78632L18.2238 12.6167L28.7994 6.53932L18.2448 0.419922L18.2364 4.34692C14.2716 4.93492 10.6092 6.78292 7.76581 9.62632C4.24621 13.1501 2.28061 17.8835 2.28061 22.8605C2.28061 27.8417 4.24201 32.5751 7.76581 36.0947C11.2854 39.6185 16.0188 41.5799 21 41.5799C25.9812 41.5799 30.7146 39.6185 34.2384 36.0947C36.3342 33.9947 37.9134 31.4285 38.8206 28.6061L39.039 27.9299L34.8474 26.6867L34.6374 27.3251C33.936 29.4629 32.739 31.4117 31.1472 32.9993C28.4508 35.6999 24.822 37.1993 21.0042 37.1993C17.1864 37.1993 13.5618 35.6957 10.8654 32.9993C8.16481 30.2987 6.66541 26.6741 6.66541 22.8563C6.66541 19.0385 8.16901 15.4139 10.8654 12.7175C12.8772 10.7015 15.4392 9.33652 18.228 8.78632ZM35.1834 20.7101C35.0448 19.7903 34.818 18.8873 34.503 18.0179L34.272 17.3753L38.3712 15.8465L38.6106 16.5017C39.0684 17.7659 39.3834 19.0763 39.5598 20.4119L39.6606 21.1637L35.2758 21.3233L35.1834 20.7101ZM35.1036 25.4897C35.2632 24.6245 35.343 23.7425 35.343 22.8647C35.343 22.7765 35.343 22.6925 35.3388 22.6043L35.3304 21.9239L39.7026 21.7643L39.7194 22.4657C39.7236 22.5959 39.7236 22.7261 39.7236 22.8605C39.7236 24.1163 39.5976 25.3763 39.3498 26.6069L39.1986 27.3461L34.9944 26.0987L35.1036 25.4897ZM33.7428 16.2749C33.3564 15.5315 32.907 14.8217 32.3988 14.1581L31.983 13.6163L35.427 10.9199L35.8512 11.4743C36.603 12.4487 37.254 13.4987 37.7958 14.6033L38.1318 15.2879L34.02 16.8251L33.7428 16.2749ZM31.5798 13.1585L31.1388 12.7217C30.5004 12.0833 29.8032 11.5037 29.0556 10.9955L28.4382 10.5755L31.1724 7.13572L31.7058 7.50952C32.6046 8.13952 33.453 8.84932 34.23 9.62632C34.3224 9.71872 34.4106 9.81112 34.4988 9.90352L35.028 10.4579L31.5798 13.1585ZM21.0084 35.5907V31.8737H22.2894V35.5907H21.0084ZM30.4038 31.8779L27.7746 29.2487L28.6818 28.3415L31.311 30.9707L30.4038 31.8779ZM11.739 31.5713L14.3724 28.9421L15.2796 29.8493L12.6504 32.4785L11.739 31.5713ZM12.0456 12.9065L14.6748 15.5399L13.7718 16.4471L11.1384 13.8179L12.0456 12.9065ZM30.7104 13.2131L29.8032 12.3059L27.174 14.9393L28.0812 15.8465L30.7104 13.2131ZM34.4232 22.6127H30.702V21.3317H34.4232V22.6127Z" fill="#222A31"/>
</g>
</g>
</svg>
