<svg width="11" height="11" viewBox="0 0 11 11" fill="none" xmlns="http://www.w3.org/2000/svg">
<path d="M0.424723 0.15696C0.289973 0.21757 0.155223 0.3961 0.124974 0.55439C0.0744835 0.830601 0.0307037 0.780001 2.46247 3.21859L4.73936 5.49889L2.45906 7.78249C1.20616 9.0355 0.165343 10.0965 0.145103 10.1369C0.0912035 10.2447 0.101324 10.4738 0.161934 10.6051C0.266323 10.824 0.593023 10.9453 0.835573 10.8544C0.886063 10.8341 1.96054 9.7967 3.22356 8.5471L5.51728 6.27692L7.77415 8.53698C9.07094 9.83377 10.0746 10.8139 10.1352 10.8408C10.5932 11.0396 11.0547 10.5478 10.8324 10.1032C10.802 10.0426 9.76801 8.98149 8.53194 7.74542L6.28871 5.49218L8.55218 3.24895C10.9907 0.82389 10.9268 0.89792 10.8729 0.60158C10.8122 0.274879 10.4047 0.0795202 10.1015 0.2311C10.0409 0.26135 8.98998 1.28875 7.76403 2.5114L5.53092 4.7411L3.26745 2.47763C2.02115 1.23474 0.953493 0.19403 0.892883 0.16367C0.761543 0.0996504 0.566183 0.0963507 0.424723 0.15696Z" fill="#222A31"/>
</svg>
