<svg width="11" height="11" viewBox="0 0 11 11" fill="none" xmlns="http://www.w3.org/2000/svg">
<g id="close 1" clip-path="url(#clip0_83_156)">
<g id="Group">
<g id="Group_2">
<path id="Vector" d="M0.42509 0.156961C0.29034 0.217571 0.15559 0.396101 0.12534 0.554391C0.0748497 0.830602 0.0310699 0.780002 2.46284 3.21859L4.73973 5.49889L2.45943 7.78249C1.20653 9.0355 0.16571 10.0965 0.14547 10.1369C0.0915697 10.2447 0.10169 10.4738 0.1623 10.6051C0.26669 10.824 0.59339 10.9453 0.83594 10.8544C0.88643 10.8341 1.96091 9.7967 3.22393 8.5471L5.51765 6.27692L7.77452 8.53698C9.07131 9.83377 10.0749 10.8139 10.1356 10.8408C10.5936 11.0396 11.055 10.5478 10.8327 10.1032C10.8024 10.0426 9.76838 8.98149 8.53231 7.74542L6.28908 5.49218L8.55255 3.24895C10.991 0.823891 10.9271 0.897921 10.8732 0.601581C10.8126 0.27488 10.4051 0.0795212 10.1019 0.231101C10.0413 0.261351 8.99035 1.28875 7.7644 2.5114L5.53129 4.7411L3.26782 2.47763C2.02152 1.23474 0.95386 0.194031 0.89325 0.163671C0.76191 0.0996513 0.56655 0.0963516 0.42509 0.156961Z" fill="#FF6B00"/>
</g>
</g>
</g>
<defs>
<clipPath id="clip0_83_156">
<rect width="11" height="11" fill="white"/>
</clipPath>
</defs>
</svg>
