<svg width="19" height="19" viewBox="0 0 19 19" fill="none" xmlns="http://www.w3.org/2000/svg">
<g id="&#209;&#128;&#208;&#181;&#208;&#180;&#208;&#176;&#208;&#186;&#209;&#130;&#208;&#184;&#209;&#128;&#208;&#190;&#208;&#178;&#208;&#176;&#209;&#130;&#209;&#140; 1">
<g id="Group">
<path id="Vector" d="M9.39115 5.18503L12.7123 8.50623L5.76595 15.2892H2.83045V12.3537L9.39115 5.18503ZM9.39115 3.76953C9.24105 3.76953 9.09095 3.82653 8.97695 3.94243L1.65625 11.7666V15.8744C1.67335 16.1708 1.94695 16.4444 2.24335 16.4615H6.35115L13.955 8.92043C14.1849 8.69053 14.1849 8.32003 13.955 8.09013L9.80725 3.94053C9.69135 3.82653 9.54125 3.76953 9.39115 3.76953Z" fill="#FF6B00"/>
<path id="Vector_2" d="M13.4363 1.36414L16.7575 4.68534L15.4427 6.00014L12.1215 2.67704L13.4363 1.36414C13.4344 1.36414 13.4344 1.36414 13.4363 1.36414ZM13.4363 0.189941C13.1361 0.189941 12.8359 0.303941 12.606 0.533841L10.4609 2.67704L15.4408 7.65694L17.584 5.51374C18.0419 5.05584 18.0419 4.31294 17.584 3.85314L14.2647 0.533841C14.0367 0.303941 13.7346 0.189941 13.4363 0.189941Z" fill="#FF6B00"/>
<path id="Vector_3" d="M16.9172 18.8099H1.65644C1.33154 18.8099 1.06934 18.5477 1.06934 18.2228C1.06934 17.8979 1.33154 17.6357 1.65644 17.6357H16.9172C17.2421 17.6357 17.5043 17.8979 17.5043 18.2228C17.5043 18.5477 17.2421 18.8099 16.9172 18.8099Z" fill="#FF6B00"/>
</g>
</g>
</svg>
