<svg width="19" height="15" viewBox="0 0 19 15" fill="none" xmlns="http://www.w3.org/2000/svg">
<path id="Vector" d="M0.339979 11.3407V3.71491L6.4597 7.52783L0.339979 11.3407ZM18.8515 13.5209C18.5811 14.115 17.9661 14.5278 17.2501 14.5278H2.08983C1.3777 14.5278 0.762686 14.1168 0.490402 13.5284C0.393293 13.3191 0.339979 13.0856 0.339979 12.8409L7.66499 8.27696L9.66999 9.52863L11.6769 8.27883L19 12.8409C19 13.0819 18.9467 13.3117 18.8515 13.5209ZM19 3.71491V11.3389L12.8803 7.52783L19 3.71491ZM17.2501 0.527832C17.9661 0.527832 18.5811 0.942564 18.8515 1.53477C18.9467 1.74214 19 1.97192 19 2.21478L9.66999 8.02663L0.339979 2.21478C0.339979 1.97005 0.393293 1.73653 0.490402 1.5273C0.762686 0.938827 1.3777 0.527832 2.08983 0.527832H17.2501Z" fill="#FF8000"/>
</svg>
