<svg width="49" height="49" viewBox="0 0 49 49" fill="none" xmlns="http://www.w3.org/2000/svg">
<g id="702eb1393be53e70f14fe27804255b0a 1">
<g id="Group">
<path id="Vector" d="M28.077 22.8584C28.2485 22.9172 28.4347 22.9711 28.6356 23.0152C28.4347 22.9711 28.2485 22.9172 28.077 22.8584Z" fill="#222A31"/>
<path id="Vector_2" d="M29.9978 23.1328C29.8312 23.1426 29.6646 23.1426 29.5078 23.1328C29.5911 23.1377 29.6695 23.1475 29.7577 23.1475C29.8312 23.1524 29.9145 23.1377 29.9978 23.1328Z" fill="#222A31"/>
<path id="Vector_3" d="M28.7924 23.0496C28.9443 23.079 29.1011 23.1035 29.2677 23.1231C29.106 23.1035 28.9443 23.079 28.7924 23.0496Z" fill="#222A31"/>
<path id="Vector_4" d="M30.2085 23.123C30.4486 23.0985 30.6936 23.0642 30.9484 22.9907C30.6936 23.0593 30.4486 23.0985 30.2085 23.123Z" fill="#222A31"/>
<path id="Vector_5" d="M40.0232 29.552L40.0428 29.5324L39.2833 28.768L38.7982 28.2878L37.9652 27.4548L37.534 27.0236L33.3788 22.8684C32.8888 23.2114 32.1979 23.5691 31.1836 23.8484C30.723 23.9758 30.2428 24.0395 29.7528 24.0395C27.8271 24.0395 26.3816 23.0301 26.3571 23.0105L22.3538 20.4429L21.6727 21.124C21.7854 22.0795 22.0157 24.3482 21.8197 25.9113C21.5159 28.3466 19.2472 29.062 19.1492 29.0914L18.3848 29.3217L18.0712 28.5867C18.0565 28.5524 16.6355 25.2302 15.6947 22.6381C14.5628 19.5168 16.7041 17.5127 16.7678 17.4588L19.6833 14.5433L17.6498 12.5098L8.01639 22.153L11.5542 25.6908C11.5542 25.6908 11.9462 26.1906 12.1226 26.808C12.1961 27.0677 12.2255 27.3274 12.2353 27.5479C12.9556 27.5528 13.6318 27.8321 14.1414 28.3417C14.7784 28.9787 15.0136 29.8656 14.8715 30.7133L14.9548 30.7966C15.4203 30.4536 15.9789 30.2576 16.562 30.2576C17.2872 30.2576 17.9683 30.5418 18.4828 31.0514C19.1443 31.708 19.3844 32.6439 19.2129 33.5112C19.7029 33.0996 20.3252 32.8742 20.9622 32.8742C21.6874 32.8742 22.3685 33.1584 22.883 33.668C23.8777 34.6676 23.9414 36.2895 23.0251 37.3675C23.0104 37.3822 23.0006 37.3969 22.9859 37.4116C22.9565 37.4557 22.9222 37.4949 22.883 37.5341L22.6135 37.8036C22.8046 37.7644 22.9957 37.735 23.1917 37.735C23.9169 37.735 24.598 38.0192 25.1125 38.5337C25.9063 39.3275 26.1023 40.5231 25.6809 41.5227L25.8769 41.7187C25.8916 41.7383 25.8965 41.7628 25.9161 41.7775C25.9308 41.7971 25.9553 41.802 25.9749 41.8167L25.9798 41.8216C26.2983 42.0862 26.754 42.0813 27.0627 41.8069L27.0676 41.8118L27.1019 41.7775L28.5082 40.3712L28.5621 40.3173L28.5523 40.3075C28.812 39.9988 28.812 39.5578 28.5523 39.2491L28.5719 39.2295L27.8075 38.47L27.3812 38.0437L28.3073 37.1176C28.4788 37.2891 28.6111 37.4165 28.6013 37.4067L29.841 38.6464C29.8557 38.666 29.8606 38.6856 29.8802 38.7052C29.8998 38.7248 29.9194 38.7297 29.939 38.7444L29.9439 38.7493C30.2575 39.0139 30.7181 39.009 31.0268 38.7346L31.0317 38.7395L31.066 38.7052L32.4723 37.2989L32.5262 37.245L32.5164 37.2352C32.7712 36.9265 32.7712 36.4855 32.5164 36.1768L32.536 36.1572L31.1885 34.8097L30.8994 34.5255L31.8108 33.6141C32.4429 34.2413 33.2073 35.0008 33.2318 35.0204L33.7953 35.5839C33.81 35.6035 33.8149 35.6231 33.8345 35.6427C33.8492 35.6574 33.8737 35.6672 33.8933 35.6819L33.8982 35.6868C34.2167 35.9514 34.6724 35.9465 34.9811 35.6721L34.986 35.677L35.0203 35.6427L36.4266 34.2364L36.4805 34.1825L36.4707 34.1727C36.7304 33.864 36.7304 33.423 36.4707 33.1143L36.4903 33.0947L35.1428 31.7472L34.4078 31.0171L35.3486 30.0763L36.6667 31.3944C36.701 31.4287 36.7402 31.4532 36.7745 31.4826L37.338 32.0461C37.3527 32.0657 37.3576 32.0902 37.3772 32.1049C37.3919 32.1245 37.4164 32.1294 37.436 32.1441L37.4409 32.149C37.7594 32.4136 38.2151 32.4087 38.5238 32.1343L38.5287 32.1392L38.563 32.1049L39.9693 30.6986L40.0232 30.6447L40.0134 30.6349C40.278 30.3017 40.278 29.8656 40.0232 29.552ZM31.8157 33.5994L31.8206 33.5945L32.5507 34.3246L32.5556 34.3295C32.5703 34.3442 32.2273 34.0061 31.8157 33.5994Z" fill="#222A31"/>
<path id="Vector_6" d="M27.6017 22.6724C27.7144 22.7214 27.832 22.7655 27.9594 22.8145C27.832 22.7704 27.7095 22.7214 27.6017 22.6724Z" fill="#222A31"/>
<path id="Vector_7" d="M26.8373 22.2656C26.8373 22.2656 26.8618 22.2852 26.9059 22.3097C26.8716 22.2852 26.8373 22.2656 26.8373 22.2656Z" fill="#222A31"/>
<path id="Vector_8" d="M26.9598 22.3391C27.0039 22.3636 27.0529 22.393 27.1166 22.4322C27.0529 22.3979 26.999 22.3636 26.9598 22.3391Z" fill="#222A31"/>
<path id="Vector_9" d="M27.2195 22.491C27.2881 22.5253 27.3665 22.5645 27.4498 22.6037C27.3665 22.5645 27.2881 22.5253 27.2195 22.491Z" fill="#222A31"/>
<path id="Vector_10" d="M38.3185 7.55143C37.1466 6.3795 35.2464 6.37991 34.075 7.55234L32.6171 9.01148C31.4464 10.1832 31.4468 12.082 32.618 13.2532L40.686 21.3212C41.8572 22.4924 43.756 22.4928 44.9277 21.3221L46.3868 19.8642C47.5593 18.6928 47.5597 16.7926 46.3878 15.6207L38.3185 7.55143ZM44.1717 19.5626C43.6641 20.0702 42.841 20.0696 42.3342 19.5614C41.8287 19.0546 41.8287 18.2344 42.3342 17.7276C42.841 17.2194 43.6641 17.2188 44.1717 17.7264C44.6787 18.2334 44.6787 19.0556 44.1717 19.5626Z" fill="#222A31"/>
<path id="Vector_11" d="M2.61219 15.1806C1.4402 16.3521 1.44 18.2519 2.61175 19.4237L3.66067 20.4726C4.83224 21.6442 6.73174 21.6442 7.90331 20.4726L15.5393 12.8367C16.7104 11.6655 16.7109 9.76673 15.5402 8.595L14.4934 7.54716C13.3221 6.37483 11.4222 6.3742 10.2502 7.54574L2.61219 15.1806ZM6.73259 19.159C6.20339 19.6882 5.35079 19.6882 4.82649 19.159C4.29729 18.6347 4.29729 17.7772 4.82649 17.2529C5.35079 16.7237 6.20829 16.7237 6.73259 17.2529C7.26179 17.7821 7.26179 18.6347 6.73259 19.159Z" fill="#222A31"/>
<path id="Vector_12" d="M13.6024 31.4679C14.2198 30.7427 14.1953 29.6598 13.5093 28.9738C12.8233 28.2927 11.7404 28.2633 11.0201 28.8807L11.0152 28.8856C10.9809 28.915 10.9417 28.9395 10.9074 28.9738L10.4272 29.4589C10.3929 29.4932 10.3684 29.5324 10.339 29.5667L9.77549 30.1302C9.75589 30.1449 9.73629 30.1498 9.71669 30.1694C9.70199 30.189 9.69219 30.2135 9.67749 30.2282L9.67259 30.2331C9.40799 30.5516 9.41289 31.0073 9.68729 31.316L9.6824 31.3209L9.71669 31.3552L11.123 32.7615L11.1769 32.8154L11.1867 32.8056C11.4954 33.0604 11.9364 33.0604 12.2451 32.8056L12.2647 32.8252L13.0291 32.0608L13.5093 31.5806L13.6122 31.4777L13.6024 31.4679Z" fill="#222A31"/>
<path id="Vector_13" d="M24.5735 41.6549C25.1909 40.9297 25.1664 39.8468 24.4804 39.1657C23.7944 38.4797 22.7115 38.4552 21.9863 39.0726C21.9863 39.0726 21.9079 39.1363 21.8736 39.1657L21.0014 40.0379C20.9671 40.0722 20.9426 40.1114 20.9132 40.1457L20.3497 40.7092C20.3301 40.7239 20.3105 40.7288 20.2909 40.7484C20.2713 40.7631 20.2664 40.7876 20.2517 40.8072L20.2468 40.8121C19.9822 41.1306 19.9871 41.5863 20.2615 41.895L20.2566 41.8999L20.2909 41.9342L21.6972 43.3405L21.7511 43.3944L21.7609 43.3846C22.0696 43.6394 22.5106 43.6394 22.8193 43.3846L22.8389 43.4042L23.6033 42.6398L24.0835 42.1596L24.5784 41.6647L24.5735 41.6549Z" fill="#222A31"/>
<path id="Vector_14" d="M17.9438 34.1776C18.5612 33.4524 18.5367 32.3695 17.8507 31.6884C17.1647 31.0024 16.0818 30.9779 15.3566 31.5953L14.0973 32.8546L14.0924 32.8595C14.0581 32.8889 15.2782 31.6541 15.2439 31.6884L14.7637 32.1686C14.7294 32.198 14.7049 32.2421 14.6755 32.2764L12.8576 34.0992C12.838 34.1139 12.8184 34.1188 12.7988 34.1384C12.7841 34.1531 12.7743 34.1776 12.7596 34.1972L12.7547 34.2021C12.4901 34.5157 12.495 34.9763 12.7694 35.285L12.7645 35.2899L12.7988 35.3242L14.2051 36.7305L14.259 36.7844L14.2688 36.7746C14.5775 37.0294 15.0185 37.0294 15.3272 36.7746L15.3468 36.7942L17.3656 34.7754L17.8458 34.2952L16.6894 35.4516L17.9438 34.1776Z" fill="#222A31"/>
<path id="Vector_15" d="M22.344 36.7941C22.9614 36.0689 22.9369 34.986 22.2509 34.3C21.5649 33.6189 20.482 33.5895 19.7617 34.2069L17.6106 36.358L17.6057 36.3629C17.5714 36.3923 19.6833 34.2657 19.649 34.3L19.1688 34.7851C19.1345 34.8145 16.9589 37.0048 16.9295 37.044L16.366 37.6026C16.3464 37.6173 16.3268 37.6222 16.3072 37.6418C16.2925 37.6614 16.2827 37.681 16.268 37.7006L16.2631 37.7055C15.9985 38.024 16.0034 38.4797 16.2778 38.7884L16.2729 38.7933L16.3072 38.8276L17.7135 40.2339L17.7674 40.2878L17.7772 40.278C18.0859 40.5328 18.5269 40.5328 18.8356 40.278L18.8552 40.2976L21.7658 37.387L22.246 36.9019L20.2076 38.955L22.344 36.7941Z" fill="#222A31"/>
<path id="Vector_16" d="M21.9226 13.5729L17.3999 18.0956C17.3999 18.0956 15.5918 19.7469 16.5326 22.3439C17.4783 24.9409 18.8944 28.2435 18.8944 28.2435C18.8944 28.2435 20.7025 27.6947 20.9377 25.8033C21.1729 23.9168 20.7368 20.8053 20.7368 20.8053L22.2313 19.3108L26.8373 22.2655C26.8373 22.2655 28.7238 23.6032 30.9484 22.9907C33.1681 22.3831 33.6042 21.3982 33.6042 21.3982L37.8917 25.6857L40.6063 22.9711L30.4584 12.8232L28.7777 14.5039L21.9226 13.5729Z" fill="#222A31"/>
</g>
</g>
</svg>
