<svg width="20" height="20" viewBox="0 0 20 20" fill="none" xmlns="http://www.w3.org/2000/svg">
<g id="72a18efb5f9cc44f119aeac6fe4bb42a 1">
<g id="Group">
<g id="Group_2">
<path id="Vector" d="M10.15 17.7684C10.12 17.7564 10.084 17.7704 10.072 17.8024C10.06 17.8344 10.074 17.8684 10.106 17.8804C10.218 17.9244 10.29 18.0304 10.29 18.1504C10.29 18.3104 10.16 18.4384 10.002 18.4384C9.84201 18.4384 9.71401 18.3084 9.71401 18.1484C9.71401 18.0324 9.78401 17.9284 9.89001 17.8824C9.92001 17.8684 9.93601 17.8344 9.92201 17.8024C9.90801 17.7724 9.87401 17.7564 9.84201 17.7704C9.69001 17.8344 9.59201 17.9824 9.59201 18.1484C9.59201 18.3744 9.77601 18.5584 10.002 18.5584C10.228 18.5584 10.412 18.3744 10.412 18.1484C10.41 17.9804 10.308 17.8304 10.15 17.7684Z" fill="#FF8000"/>
<path id="Vector_2" d="M10 18.2224C10.034 18.2224 10.06 18.1964 10.06 18.1624V18.0024C10.06 17.9684 10.032 17.9424 10 17.9424C9.966 17.9424 9.94 17.9684 9.94 18.0024V18.1624C9.94 18.1964 9.966 18.2224 10 18.2224Z" fill="#FF8000"/>
<path id="Vector_3" d="M14.444 0.200195H5.55601C4.82601 0.200195 4.23401 0.792195 4.23401 1.5222V18.4782C4.23401 19.2082 4.82601 19.8002 5.55601 19.8002H14.444C15.174 19.8002 15.766 19.2082 15.766 18.4782V1.5222C15.766 0.792195 15.174 0.200195 14.444 0.200195ZM13.412 1.3562C13.54 1.3562 13.644 1.4602 13.644 1.5882C13.644 1.7162 13.54 1.8202 13.412 1.8202C13.284 1.8202 13.178 1.7162 13.178 1.5882C13.178 1.4602 13.284 1.3562 13.412 1.3562ZM8.38201 1.4242H11.616C11.706 1.4242 11.78 1.4982 11.78 1.5882C11.78 1.6782 11.706 1.7522 11.616 1.7522H8.38201C8.29201 1.7522 8.21801 1.6782 8.21801 1.5882C8.21801 1.4982 8.29201 1.4242 8.38201 1.4242ZM6.25801 1.4242H7.32601C7.41601 1.4242 7.49001 1.4982 7.49001 1.5882C7.49001 1.6782 7.41601 1.7522 7.32601 1.7522H6.25801C6.16801 1.7522 6.09401 1.6782 6.09401 1.5882C6.09401 1.4982 6.16801 1.4242 6.25801 1.4242ZM9.97801 18.9922C9.51801 18.9922 9.14601 18.6202 9.14601 18.1602C9.14601 17.7002 9.51801 17.3282 9.97801 17.3282C10.436 17.3282 10.81 17.7002 10.81 18.1602C10.81 18.6202 10.436 18.9922 9.97801 18.9922ZM13.982 15.7982C13.982 15.9982 13.82 16.1622 13.618 16.1622H6.38201C6.18001 16.1622 6.01801 16.0002 6.01801 15.7982V2.7462C6.01801 2.5462 6.18001 2.38219 6.38201 2.38219H13.618C13.82 2.38219 13.982 2.5442 13.982 2.7462V15.7982Z" fill="#FF8000"/>
</g>
</g>
</g>
</svg>
