<svg width="75" height="75" viewBox="0 0 75 75" fill="none" xmlns="http://www.w3.org/2000/svg">
<g id="99daa2b9e5b1308854827cd5c0a4740a 1">
<g id="Group">
<g id="Group_2">
<path id="Vector" d="M4.0875 9.76266C2.84175 10.1482 1.72875 11.0977 1.10625 12.2992L0.75 12.9667V30.3217V47.6767L1.1505 48.4184C1.6695 49.4272 2.66325 50.3167 3.702 50.7029C4.488 50.9999 4.81425 51.0142 9.057 51.0142H13.581V49.9019V48.7897H9.07125C4.63575 48.7897 4.56225 48.7897 4.0725 48.4484C3.8055 48.2699 3.42 47.8844 3.2415 47.6174L2.90025 47.1134V39.0584V30.9892H8.22525H13.5502L13.6095 29.0902C13.6537 27.3547 13.6987 27.1319 14.1285 26.2424C14.8252 24.7889 15.7305 23.9579 17.229 23.3797L18.1042 23.0534L39.138 23.0092L60.1567 22.9649V18.1589C60.1567 13.6642 60.1417 13.2937 59.8455 12.5369C59.475 11.5432 58.5697 10.5644 57.561 10.0747L56.8192 9.70416L30.6382 9.67416C16.236 9.65916 4.29525 9.70341 4.0875 9.76266ZM56.8357 12.1657C57.1027 12.3292 57.474 12.7147 57.6667 13.0109C57.978 13.5299 58.008 13.7377 58.0522 16.3334L58.1115 19.1219H30.5062H2.901V16.3184C2.901 13.6634 2.916 13.4999 3.24225 13.0252C3.42 12.7582 3.80625 12.3727 4.07325 12.1942L4.57725 11.8529H30.462C56.2867 11.8544 56.346 11.8544 56.8357 12.1657Z" fill="#FF6B00"/>
<path id="Vector_2" d="M17.9422 24.225C17.1262 24.477 16.0582 25.263 15.5835 25.9305C14.7232 27.192 14.7525 26.2575 14.7975 45.0075L14.8417 62.2147L15.183 62.8522C15.6427 63.7125 16.4887 64.5435 17.3782 64.9732L18.105 65.3295H44.5087H70.9125L71.6542 64.929C72.663 64.41 73.5532 63.4162 73.9387 62.3775C74.25 61.5322 74.25 61.5322 74.25 44.7112C74.25 27.8902 74.25 27.8902 73.9387 27.0442C73.5532 26.0062 72.663 25.0125 71.6542 24.4927L70.9125 24.0922L44.7315 24.0622C23.5642 24.0472 18.4312 24.0772 17.9422 24.225ZM70.8532 26.5837C71.1202 26.7615 71.5057 27.1477 71.6842 27.4147L72.0255 27.9195V44.7105V61.5022L71.6842 62.0062C71.5065 62.2732 71.121 62.6587 70.8532 62.8372L70.3492 63.1785H44.553C15.6427 63.1785 18.105 63.282 17.319 62.0955L16.9185 61.4872V44.7105V27.9337L17.304 27.3405C18.09 26.154 15.6135 26.2425 44.5237 26.2425H70.3492L70.8532 26.5837Z" fill="#FF6B00"/>
<path id="Vector_3" d="M47.1634 31.716C46.1254 32.1907 46.0654 32.4427 46.0654 36.9225C46.0654 41.4315 46.1097 41.6542 47.1927 42.144C47.8009 42.411 48.2757 42.411 57.1759 42.381C66.3574 42.3367 66.5209 42.3367 66.9364 42.0247C67.8117 41.3872 67.8709 41.0752 67.8709 36.9217C67.8709 32.7682 67.8117 32.457 66.9364 31.8187C66.5209 31.5075 66.3582 31.5075 57.1459 31.4775C48.2614 31.4347 47.7424 31.449 47.1634 31.716Z" fill="#FF6B00"/>
<path id="Vector_4" d="M21.1465 48.8639V49.9762H25.819H30.4915V48.8639V47.7517H25.819H21.1465V48.8639Z" fill="#FF6B00"/>
<path id="Vector_5" d="M33.6064 48.8639V49.9762H38.2789H42.9514V48.8639V47.7517H38.2789H33.6064V48.8639Z" fill="#FF6B00"/>
<path id="Vector_6" d="M46.0664 48.8639V49.9762H50.7389H55.4114V48.8639V47.7517H50.7389H46.0664V48.8639Z" fill="#FF6B00"/>
<path id="Vector_7" d="M58.5264 48.8639V49.9762H63.1989H67.8714V48.8639V47.7517H63.1989H58.5264V48.8639Z" fill="#FF6B00"/>
<path id="Vector_8" d="M21.1465 56.7255V57.8378H36.796H52.4455V56.7255V55.6133H36.796H21.1465V56.7255Z" fill="#FF6B00"/>
<path id="Vector_9" d="M56.7461 56.7255V57.8378H62.3088H67.8716V56.7255V55.6133H62.3088H56.7461V56.7255Z" fill="#FF6B00"/>
</g>
</g>
</g>
</svg>
