<svg width="24" height="24" viewBox="0 0 24 24" fill="none" xmlns="http://www.w3.org/2000/svg">
<g id="08b255a5d42b89b0585260b6f2360bdd 1" clip-path="url(#clip0_4_83)">
<g id="Group">
<g id="Group_2">
<path id="Vector" d="M16.524 10.1906C16.524 8.44823 15.9048 6.95543 14.6664 5.71703C13.428 4.47863 11.9352 3.85943 10.1928 3.85943C8.45041 3.85943 6.95761 4.47863 5.71921 5.71703C4.48081 6.95543 3.85921 8.44823 3.85921 10.1906C3.85921 11.933 4.47841 13.4258 5.71681 14.6642C6.95521 15.9026 8.44801 16.5218 10.1904 16.5218C11.9328 16.5218 13.4256 15.9026 14.664 14.6642C15.9024 13.4258 16.524 11.9354 16.524 10.1906ZM23.76 21.9506C23.76 22.4402 23.58 22.865 23.2224 23.2226C22.8648 23.5802 22.44 23.7602 21.9504 23.7602C21.4416 23.7602 21.0168 23.5802 20.6784 23.2226L15.8304 18.389C14.1432 19.5578 12.264 20.141 10.1904 20.141C8.84401 20.141 7.55521 19.8794 6.32401 19.3562C5.09281 18.833 4.03441 18.1274 3.14401 17.237C2.25361 16.3466 1.54801 15.2858 1.02481 14.057C0.501606 12.8282 0.240005 11.5394 0.240005 10.1906C0.240005 8.84184 0.501606 7.55543 1.02481 6.32423C1.54801 5.09303 2.25361 4.03463 3.14401 3.14423C4.03441 2.25383 5.09521 1.54583 6.32401 1.02503C7.55281 0.504234 8.84401 0.240234 10.1904 0.240234C11.5368 0.240234 12.8256 0.501834 14.0568 1.02503C15.2856 1.54823 16.3464 2.25383 17.2368 3.14423C18.1272 4.03463 18.8352 5.09543 19.356 6.32423C19.8792 7.55303 20.1408 8.84184 20.1408 10.1906C20.1408 12.2642 19.5576 14.1434 18.3888 15.8306L23.2368 20.6786C23.5848 21.0266 23.76 21.4514 23.76 21.9506Z" fill="#FF8000"/>
</g>
</g>
</g>
<defs>
<clipPath id="clip0_4_83">
<rect width="24" height="24" fill="white"/>
</clipPath>
</defs>
</svg>
