<svg width="40" height="40" viewBox="0 0 40 40" fill="none" xmlns="http://www.w3.org/2000/svg">
<g id="Group 82">
<g id="Group">
<g id="Group_2">
<path id="Vector" d="M20 0C8.9551 0 0 8.9551 0 20C0 31.0449 8.9551 40 20 40C31.0449 40 40 31.0449 40 20C40 8.9551 31.0449 0 20 0ZM29.8286 13.7102L26.5469 29.1714C26.3184 30.2735 25.6571 30.5306 24.7347 30.0245L19.7347 26.3265L17.3347 28.6612C17.0531 28.9347 16.8327 29.1633 16.3347 29.1633C15.6857 29.1633 15.7959 28.9224 15.5755 28.302L13.8735 22.7102L8.92653 21.1714C7.85714 20.8449 7.84898 20.1102 9.16735 19.5837L28.4327 12.1469C29.3143 11.751 30.1633 12.3592 29.8286 13.7102Z" fill="white"/>
</g>
</g>
</g>
</svg>
