<svg width="26" height="26" viewBox="0 0 26 26" fill="none" xmlns="http://www.w3.org/2000/svg">
<g id="e5a460bb5dad0812ac4ebf28ead4d31f 1">
<g id="Group">
<path id="Vector" d="M22.659 18.621C21.5436 17.1676 20.1968 16.2212 18.265 15.6856L16.4554 22.0244C16.4554 22.6094 15.977 23.0852 15.392 23.0852C14.807 23.0852 14.3286 22.6068 14.3286 22.0244V16.9804C14.3286 16.2472 13.7358 15.6544 13.0026 15.6544C12.2694 15.6544 11.6766 16.2472 11.6766 16.9804V22.0244C11.6766 22.6094 11.1982 23.0852 10.6132 23.0852C10.0282 23.0852 9.54981 22.6068 9.54981 22.0244L7.74021 15.6856C5.80841 16.2264 4.45901 17.1676 3.34621 18.621C2.90421 19.193 2.66501 20.3448 2.64941 20.961V23.6156C2.64941 24.7882 3.60101 25.7372 4.77101 25.7372H21.2264C22.399 25.7372 23.348 24.7856 23.348 23.6156V20.9636C23.3324 20.3474 23.0932 19.1956 22.6512 18.6236H22.659V18.621ZM13.0052 13.5302C16.5828 13.5302 18.5796 8.97497 18.5796 5.87577C18.5796 2.77657 16.0836 0.259766 13.0052 0.259766C9.92681 0.259766 7.43081 2.77657 7.43081 5.87577C7.43081 8.97756 9.36261 13.5302 13.0052 13.5302Z" fill="white"/>
</g>
</g>
</svg>
