<svg width="27" height="27" viewBox="0 0 27 27" fill="none" xmlns="http://www.w3.org/2000/svg">
<g id="vk-social-network-logo_icon-icons.com_73339 1" clip-path="url(#clip0_29_730)">
<g id="Group">
<path id="Vector" d="M26.8569 19.7098C26.8242 19.6393 26.7937 19.5809 26.7654 19.534C26.2969 18.6903 25.4017 17.6548 24.0803 16.427L24.0524 16.3989L24.0384 16.3851L24.0243 16.371H24.0101C23.4104 15.7993 23.0306 15.4149 22.8716 15.2181C22.5806 14.8432 22.5154 14.4637 22.6745 14.0792C22.7868 13.7887 23.2089 13.1752 23.9397 12.2379C24.3241 11.7411 24.6285 11.343 24.8533 11.043C26.4748 8.88737 27.1778 7.50989 26.9621 6.91002L26.8783 6.76984C26.8221 6.68545 26.6768 6.60824 26.4428 6.53783C26.2082 6.46757 25.9084 6.45595 25.5428 6.50277L21.4943 6.53074C21.4287 6.5075 21.335 6.50967 21.213 6.53783C21.0912 6.566 21.0302 6.58013 21.0302 6.58013L20.9597 6.61533L20.9038 6.65763C20.8569 6.68559 20.8054 6.73478 20.7491 6.8051C20.6931 6.87516 20.6463 6.95739 20.6089 7.05109C20.1681 8.18509 19.667 9.23942 19.1045 10.214C18.7577 10.7952 18.4393 11.2988 18.1484 11.7253C17.858 12.1516 17.6143 12.4657 17.4176 12.667C17.2207 12.8685 17.0429 13.03 16.8833 13.152C16.7239 13.274 16.6022 13.3255 16.518 13.3067C16.4335 13.2878 16.354 13.2691 16.2787 13.2504C16.1476 13.166 16.0422 13.0512 15.9626 12.906C15.8828 12.7607 15.829 12.5779 15.8009 12.3577C15.7729 12.1373 15.7564 11.9477 15.7517 11.7883C15.7473 11.6291 15.7493 11.404 15.7588 11.1135C15.7685 10.8228 15.7729 10.6262 15.7729 10.523C15.7729 10.1669 15.7799 9.7803 15.7938 9.36325C15.808 8.94621 15.8195 8.61577 15.8291 8.37234C15.8386 8.12866 15.843 7.87085 15.843 7.59906C15.843 7.32726 15.8265 7.11411 15.7938 6.95941C15.7615 6.8049 15.7119 6.65492 15.6466 6.50952C15.5808 6.36427 15.4846 6.25191 15.3584 6.17214C15.2319 6.09247 15.0746 6.02925 14.8875 5.98228C14.3907 5.86987 13.7582 5.80906 12.9895 5.79961C11.2464 5.7809 10.1264 5.89345 9.6297 6.13713C9.4329 6.24009 9.25481 6.38076 9.09557 6.55871C8.92683 6.76497 8.9033 6.87752 9.02511 6.89604C9.58751 6.98028 9.98565 7.18181 10.22 7.50043L10.3044 7.66927C10.3701 7.79108 10.4357 8.00675 10.5013 8.31596C10.5668 8.62517 10.6091 8.96723 10.6278 9.34193C10.6745 10.0262 10.6745 10.6119 10.6278 11.0992C10.5808 11.5866 10.5365 11.9661 10.4942 12.2379C10.4519 12.5097 10.3887 12.7299 10.3044 12.8986C10.22 13.0673 10.1638 13.1704 10.1356 13.2078C10.1075 13.2452 10.0841 13.2688 10.0655 13.2781C9.94365 13.3247 9.81696 13.3485 9.68584 13.3485C9.55452 13.3485 9.39528 13.2828 9.20788 13.1516C9.02053 13.0203 8.82609 12.84 8.62456 12.6103C8.42303 12.3806 8.19575 12.0597 7.94262 11.6473C7.68968 11.235 7.42724 10.7477 7.15545 10.1854L6.93058 9.77764C6.79001 9.5153 6.59798 9.13331 6.3543 8.63202C6.11047 8.13053 5.89496 7.64544 5.70761 7.17684C5.63272 6.98004 5.52021 6.83021 5.37028 6.7271L5.29992 6.68481C5.25314 6.64739 5.17806 6.60765 5.07505 6.56531C4.9719 6.52301 4.86426 6.49268 4.7517 6.47402L0.899872 6.50199C0.506264 6.50199 0.239198 6.59116 0.0985743 6.76925L0.0422954 6.8535C0.0141805 6.90042 0 6.97536 0 7.07851C0 7.18162 0.0281148 7.30816 0.0843938 7.45799C0.646691 8.77954 1.25818 10.0541 1.91885 11.2818C2.57952 12.5095 3.15364 13.4984 3.64085 14.2477C4.12816 14.9975 4.62487 15.7052 5.13098 16.3704C5.6371 17.0359 5.97212 17.4623 6.13603 17.6497C6.30014 17.8374 6.42904 17.9777 6.52274 18.0714L6.87425 18.4087C7.09917 18.6337 7.42946 18.9031 7.86526 19.217C8.30117 19.5311 8.78375 19.8403 9.31325 20.1452C9.84286 20.4495 10.459 20.6979 11.1619 20.8899C11.8648 21.0822 12.5489 21.1594 13.2144 21.1221H14.831C15.1589 21.0938 15.4073 20.9907 15.5762 20.8128L15.6321 20.7423C15.6697 20.6864 15.7049 20.5995 15.7374 20.4825C15.7703 20.3654 15.7867 20.2364 15.7867 20.096C15.7771 19.6931 15.8077 19.3299 15.8778 19.0066C15.9479 18.6834 16.0278 18.4398 16.1171 18.2757C16.2064 18.1117 16.3071 17.9733 16.4192 17.8612C16.5316 17.7488 16.6116 17.6807 16.6586 17.6572C16.7053 17.6336 16.7426 17.6176 16.7707 17.608C16.9956 17.5331 17.2603 17.6057 17.5652 17.8261C17.8698 18.0464 18.1555 18.3183 18.4228 18.6415C18.6899 18.965 19.0109 19.3279 19.3857 19.7308C19.7607 20.1339 20.0886 20.4335 20.3697 20.6306L20.6507 20.7993C20.8384 20.9119 21.0821 21.015 21.3821 21.1087C21.6815 21.2023 21.9438 21.2257 22.1691 21.1789L25.7677 21.1228C26.1237 21.1228 26.4006 21.0639 26.5971 20.9469C26.7939 20.8298 26.9109 20.7007 26.9486 20.5603C26.9862 20.4198 26.9882 20.2604 26.9557 20.0821C26.9224 19.9043 26.8896 19.78 26.8569 19.7098Z" fill="#FF6B00"/>
</g>
</g>
<defs>
<clipPath id="clip0_29_730">
<rect width="27" height="27" fill="white"/>
</clipPath>
</defs>
</svg>
