<svg width="43" height="42" viewBox="0 0 43 42" fill="none" xmlns="http://www.w3.org/2000/svg">
<g id="ca22fd7c33a5651d317cca61c6fb732c 2" clip-path="url(#clip0_28_620)">
<g id="Group">
<path id="Vector" d="M21.8827 0.420036C10.4576 0.420036 1.1954 9.39544 1.1954 20.4708C1.1954 24.2592 2.279 27.7998 4.1624 30.8238L0.43 41.58L11.8852 38.0268C14.8479 39.6144 18.2578 40.5216 21.8827 40.5216C33.3078 40.5216 42.57 31.542 42.57 20.4708C42.57 9.39544 33.3078 0.420036 21.8827 0.420036ZM32.1683 28.0854C31.6824 29.2656 29.4808 30.3408 28.509 30.387C27.5372 30.4374 27.5114 31.122 22.2224 28.8792C16.9334 26.6322 13.7514 21.1764 13.502 20.8236C13.2526 20.475 11.4552 17.9718 11.5498 15.4518C11.6487 12.9318 13.0591 11.7432 13.5622 11.2518C14.0653 10.7562 14.6415 10.668 14.9941 10.6638C15.4112 10.6554 15.6821 10.6512 15.9874 10.6638C16.297 10.6764 16.7571 10.6008 17.157 11.6424C17.5569 12.684 18.5158 15.2376 18.6362 15.5022C18.7566 15.7626 18.834 16.065 18.6448 16.401C18.4556 16.737 18.3567 16.947 18.0858 17.2368C17.8106 17.5266 17.5053 17.8836 17.2602 18.1062C16.985 18.3498 16.6969 18.6186 16.9893 19.1436C17.2774 19.6686 18.275 21.3822 19.7886 22.7934C21.7365 24.6078 23.4178 25.2126 23.9381 25.4856C24.4584 25.7628 24.768 25.7292 25.0862 25.4016C25.4044 25.0698 26.4622 23.9568 26.8363 23.457C27.2104 22.9572 27.5587 23.0538 28.036 23.2428C28.5133 23.4318 31.0589 24.7632 31.5792 25.0404C32.0995 25.3134 32.4435 25.4562 32.5682 25.6746C32.6929 25.8804 32.6542 26.9052 32.1683 28.0854Z" fill="white"/>
</g>
</g>
<defs>
<clipPath id="clip0_28_620">
<rect width="43" height="42" fill="white"/>
</clipPath>
</defs>
</svg>
